<?xml version="1.0" encoding="utf-8"?>
<!-- Generator: Adobe Illustrator 26.3.1, SVG Export Plug-In . SVG Version: 6.00 Build 0)  -->
<svg version="1.1" id="图层_1" xmlns="http://www.w3.org/2000/svg" xmlns:xlink="http://www.w3.org/1999/xlink" x="0px" y="0px"
	 viewBox="0 0 422.4 422.4" style="enable-background:new 0 0 422.4 422.4;" xml:space="preserve">
<style type="text/css">
	.st0{display:none;}
	.st1{display:inline;fill:none;stroke:#003B55;stroke-width:40;stroke-miterlimit:10;}
	.st2{display:inline;}
	.st3{fill:#003B55;}
	.st4{display:inline;fill:none;}
	.st5{fill:none;stroke:#FFFFFF;stroke-width:40;stroke-miterlimit:10;}
	.st6{display:inline;fill:none;stroke:#003B55;stroke-width:10;stroke-miterlimit:10;}
</style>
<g id="图层_1_00000046339124591984680890000007006970877787446163_" class="st0">
	<path class="st1" d="M-475.4,157l26-79c0,0,83.1,8.3,144-59c47-52,29.8-145.2-73.2-143.2c-49,0.9-91.4,23-117,63
		C-510.4-38-516.4,19-456.4,38"/>
	<g class="st2">
		<path class="st3" d="M-234.9-29.4c6.7-1.5,16.2-2.5,25.3-2.5c9.9,0,21,2.2,27.9,8.6c5.9,5.2,9.1,12.6,9.1,21.7
			c0,13.8-6.5,25.1-14.2,31.8c-8.7,7.6-21.5,11.1-33.9,11.1c-3.8,0-7.1-0.3-10-0.8l-8.7,45.4h-17.4L-234.9-29.4z M-227.9,25.7
			c3,0.6,5.7,0.9,9.4,0.9c17.7,0,28.1-13,28.1-26.8c0-11.9-7.7-17.2-19.4-17.2c-4.4,0-7.8,0.4-10,0.9L-227.9,25.7z"/>
		<path class="st3" d="M-124.4,85.9c0.1-4.9,0.7-11.3,1.4-18.5h-0.4c-8.3,15.2-18.6,20.2-28.3,20.2c-13.8,0-22.4-11.1-22.4-27.3
			c0-28,18.4-60.7,55.6-60.7c8.3,0,17.1,1.5,22.8,3.4l-9,45.2c-2.4,12.5-3.8,27.9-3.5,37.6C-108.2,85.9-124.4,85.9-124.4,85.9z
			 M-115.6,14.4c-1.9-0.5-4.4-0.9-7.6-0.9c-18.8,0-32.5,24.1-32.6,43.2c-0.1,9.1,2.8,16.3,11.1,16.3c9.4,0,20.3-13.2,24.2-33.3
			L-115.6,14.4z"/>
		<path class="st3" d="M-96.6,120l16.7-88.1c2-10.5,3.7-22.1,4.8-30.4h15.9l-1.9,14.1h0.4C-54,5.7-44.1-0.3-33.9-0.3
			c16.8,0,23.5,14.1,23.5,29.2c0,28.8-18.7,58.7-46.2,58.7c-6.8,0-12.2-1.6-15.1-3.3h-0.4l-6.7,35.6H-96.6z M-69.3,70
			c3,2.4,7,3.9,12.2,3.9c16.7,0,28.3-25.5,28.3-43.3c0-7.8-2.8-16.1-12.1-16.1c-9.6,0-20.4,11.9-23.8,30.6L-69.3,70z"/>
		<path class="st3" d="M58.1,81.3c-7.4,3.9-17.1,6.2-27,6.2C9.2,87.5-0.3,73.2-0.3,54.1c0-24.9,17.1-54.4,44.6-54.4
			c15.6,0,24.4,9.8,24.4,22.4c0,21.8-21.9,29-51.4,28.4c-0.4,2.9,0,9.6,1.8,13.5c2.9,6.1,8.6,9.3,16.2,9.3c8.8,0,15.6-2.5,20.9-5.3
			L58.1,81.3z M41.9,13.5c-11.2,0-19.6,11-22.7,23.6C38,37.3,52,33.9,52,22.7C52,16.9,48,13.5,41.9,13.5z"/>
		<path class="st3" d="M96.6-29.4c7.1-1.6,16.6-2.5,25.5-2.5c10.9,0,20.8,2.3,27.3,7.8c5.7,4.6,9.3,11.5,9.3,20.1
			c0,17-11.8,29.7-26.4,34.2l0,0.5c7.4,2.9,10.9,11,11.7,23.4c1,15,1.8,27.5,3.3,32h-18.2c-0.8-2.9-1.7-14.3-2.4-28.2
			c-0.8-15.4-5.7-21.2-16.2-21.2h-9l-9.3,49.4H74.7L96.6-29.4z M104.2,22.9h10c15.4,0,26-11.1,26-24.7c0-10.3-7.2-16-18.6-16
			c-4.5,0-7.6,0.4-9.8,1L104.2,22.9z"/>
		<path class="st3" d="M179.2,87.5c-3.5,0-6.2-0.8-8.1-2.3c-1.9-1.6-2.9-3.8-2.9-6.9c0-1.5,0.2-3.4,0.6-5.8
			c0.4-2.4,1.2-6.1,2.4-11.2l8.9-41.4c0.4-2.1,0.5-3.9,0.5-5.4c0-1.2-0.4-2.3-1-3.4c-0.7-1.1-2.2-1.7-4.5-1.7
			c-1.5,0-3.5,0.1-5.9,0.3V5.1l24.3-1.9h3.8l-13,61.9c-0.6,3.6-0.9,6-0.9,7.3c0,2.2,1,3.3,3.1,3.3c3,0,5.7-1.1,8-3.4
			s4.2-4.1,5.6-5.7l3.5,2.6c-2,2.8-4.1,5.6-6.4,8.4c-2.3,2.8-4.9,5.2-7.8,7C186.4,86.6,183,87.5,179.2,87.5z M191.9-10.7
			c-2.6,0-4.7-0.8-6.4-2.4c-1.7-1.6-2.6-3.9-2.6-6.9s0.9-5.4,2.6-7c1.7-1.7,4.1-2.5,6.9-2.5c2.9,0,5.1,0.9,6.7,2.6s2.4,4.1,2.4,6.9
			c0,2.9-0.9,5.2-2.8,6.9C196.8-11.5,194.5-10.7,191.9-10.7z"/>
		<path class="st3" d="M236.2,87.8c-5.5,0-9.8-0.7-13.1-2s-5.6-2.2-6.9-2.7h-0.5l-4.2,4.7h-3.8l4.5-29h4.3
			c0.9,7.5,2.7,13.3,5.3,17.2c2.6,3.9,6.9,5.9,12.8,5.9c4,0,7.3-1,9.8-2.9c2.5-2,3.7-5.2,3.7-9.7c0-4.8-1.3-8.8-3.9-12.1
			s-5.6-6.5-9-9.6c-2.3-2.3-4.7-4.6-7-6.8c-2.4-2.2-4.3-4.7-5.9-7.4c-1.6-2.7-2.4-5.9-2.4-9.5c0-5.9,2-10.9,5.9-15s9.9-6.2,17.7-6.2
			c4.6,0,8.5,0.6,11.6,1.9c3.1,1.3,5.1,2.2,6.2,2.8h0.5l4.5-4.7h3.3l-4,27.1h-4.2c-0.2-6.7-1.8-12-4.6-16c-2.8-3.9-6.8-5.9-11.9-5.9
			c-4.5,0-7.8,1.2-9.7,3.7s-3,4.9-3,7.5c0,2.4,0.8,4.8,2.5,7c1.7,2.3,3.8,4.6,6.3,6.9c2.5,2.4,5.1,4.9,7.6,7.7
			c3.7,3.9,6.9,7.8,9.6,11.6c2.7,3.8,4.1,8.4,4.1,14c0,3.4-0.8,6.7-2.5,10c-1.7,3.3-4.4,6.1-8.2,8.2C248,86.7,242.8,87.8,236.2,87.8
			z"/>
		<path class="st3" d="M291.4,87.5c-3.6,0-6.2-0.9-8-2.6s-2.6-3.9-2.6-6.6c0-1.5,0.2-3.3,0.5-5.5c0.4-2.1,0.6-3.6,0.7-4.4l11.8-56.8
			H284l0.7-3.7c3.7-2,6.8-3.9,9.3-5.7c2.5-1.8,4.9-4.3,7.1-7.3c2.3-3,4.8-7,7.7-12h5.2l-16.5,80.5c-0.8,4.3-1.2,7.2-1.2,8.7
			c0,0.9,0.2,1.8,0.6,2.5c0.4,0.8,1.2,1.1,2.4,1.1c2.5,0,4.9-0.8,7-2.3c2.1-1.5,4.7-4.2,7.7-8.2l3.5,2.6c-1.6,2.2-3.6,4.9-5.9,8
			c-2.3,3.1-5.1,5.8-8.3,8.2C300,86.3,296.1,87.5,291.4,87.5z M325.3,11.6H306l1.4-6.8h19.3L325.3,11.6z"/>
	</g>
</g>
<g id="图层_2_00000075872166963002508350000012254731925427293828_" class="st0">
	<path class="st1" d="M61.9,345.9l26-79c0,0,83.1,8.4,144-59c47-52,29.8-145.2-73.2-143.2c-49,0.9-91.4,23-117,63
		c-14.8,23.2-20.8,80.2,39.2,99.2"/>
	<polygon class="st4" points="141.6,309.2 404,309.2 404,309.2 	"/>
	<g class="st2">
		<path class="st3" d="M155.1,292.4c2.8-0.6,6.7-1,10.5-1c4.1,0,8.7,0.9,11.6,3.5c2.5,2.2,3.8,5.2,3.8,9c0,5.7-2.7,10.4-5.9,13.2
			c-3.6,3.1-8.9,4.6-14,4.6c-1.6,0-2.9-0.1-4.1-0.3l-3.6,18.8H146L155.1,292.4z M158,315.3c1.3,0.3,2.4,0.4,3.9,0.4
			c7.3,0,11.6-5.4,11.6-11.1c0-4.9-3.2-7.1-8-7.1c-1.8,0-3.2,0.1-4.1,0.4L158,315.3z"/>
		<path class="st3" d="M200.8,340.3c0-2,0.3-4.7,0.6-7.7h-0.2c-3.4,6.3-7.7,8.4-11.7,8.4c-5.7,0-9.3-4.6-9.3-11.3
			c0-11.6,7.6-25.1,23.1-25.1c3.4,0,7.1,0.6,9.4,1.4l-3.7,18.7c-1,5.2-1.6,11.6-1.5,15.6L200.8,340.3L200.8,340.3z M204.5,310.6
			c-0.8-0.2-1.8-0.4-3.2-0.4c-7.8,0-13.5,10-13.5,17.9c0,3.8,1.1,6.8,4.6,6.8c3.9,0,8.4-5.5,10-13.8L204.5,310.6z"/>
		<path class="st3" d="M212.4,354.4l6.9-36.5c0.8-4.3,1.5-9.2,2-12.6h6.6l-0.8,5.8h0.1c2.8-4.1,6.9-6.6,11.1-6.6
			c7,0,9.7,5.8,9.7,12.1c0,11.9-7.8,24.3-19.2,24.3c-2.8,0-5.1-0.6-6.3-1.4h-0.2l-2.8,14.8L212.4,354.4L212.4,354.4z M223.7,333.7
			c1.2,1,2.9,1.6,5,1.6c6.9,0,11.7-10.6,11.7-17.9c0-3.2-1.2-6.7-5-6.7c-4,0-8.4,4.9-9.9,12.7L223.7,333.7z"/>
		<path class="st3" d="M276.5,338.3c-3.1,1.6-7.1,2.6-11.2,2.6c-9,0-13-6-13-13.8c0-10.3,7.1-22.5,18.5-22.5c6.5,0,10.1,4,10.1,9.3
			c0,9-9.1,12-21.3,11.8c-0.1,1.2,0,4,0.7,5.6c1.2,2.5,3.5,3.9,6.7,3.9c3.6,0,6.5-1,8.7-2.2L276.5,338.3z M269.8,310.2
			c-4.6,0-8.1,4.6-9.4,9.8c7.8,0.1,13.6-1.3,13.6-6C273.9,311.6,272.3,310.2,269.8,310.2z"/>
		<path class="st3" d="M292.4,292.4c3-0.6,6.9-1,10.6-1c4.5,0,8.6,1,11.3,3.2c2.4,1.9,3.9,4.8,3.9,8.3c0,7-4.9,12.3-10.9,14.2l0,0.2
			c3.1,1.2,4.5,4.6,4.8,9.7c0.4,6.2,0.8,11.4,1.4,13.2h-7.5c-0.3-1.2-0.7-5.9-1-11.7c-0.3-6.4-2.4-8.8-6.7-8.8h-3.7l-3.9,20.5h-7.3
			L292.4,292.4z M295.6,314.1h4.2c6.4,0,10.8-4.6,10.8-10.2c0-4.3-3-6.6-7.7-6.6c-1.9,0-3.1,0.1-4.1,0.4L295.6,314.1z"/>
		<path class="st3" d="M326.6,340.9c-1.4,0-2.6-0.3-3.4-1s-1.2-1.6-1.2-2.8c0-0.6,0.1-1.4,0.2-2.4s0.5-2.5,1-4.6l3.7-17.1
			c0.1-0.9,0.2-1.6,0.2-2.2c0-0.5-0.1-1-0.4-1.4c-0.3-0.5-0.9-0.7-1.9-0.7c-0.6,0-1.4,0-2.5,0.1v-1.9l10.1-0.8h1.6l-5.4,25.6
			c-0.2,1.5-0.4,2.5-0.4,3c0,0.9,0.4,1.4,1.3,1.4c1.2,0,2.4-0.5,3.3-1.4c1-0.9,1.7-1.7,2.3-2.3l1.4,1.1c-0.8,1.1-1.7,2.3-2.7,3.5
			c-1,1.2-2,2.1-3.2,2.9C329.6,340.5,328.2,340.9,326.6,340.9z M331.9,300.2c-1.1,0-1.9-0.3-2.7-1c-0.7-0.7-1.1-1.6-1.1-2.9
			s0.4-2.2,1.1-2.9s1.7-1,2.9-1s2.1,0.4,2.8,1.1s1,1.7,1,2.9s-0.4,2.1-1.1,2.8C333.9,299.9,333,300.2,331.9,300.2z"/>
		<path class="st3" d="M350.2,341c-2.3,0-4.1-0.3-5.4-0.8s-2.3-0.9-2.8-1.1h-0.2L340,341h-1.6l1.9-12h1.8c0.4,3.1,1.1,5.5,2.2,7.1
			s2.8,2.5,5.3,2.5c1.7,0,3-0.4,4.1-1.2c1-0.8,1.5-2.2,1.5-4c0-2-0.5-3.6-1.6-5s-2.3-2.7-3.7-4c-1-1-1.9-1.9-2.9-2.8
			c-1-0.9-1.8-1.9-2.5-3.1c-0.6-1.1-1-2.4-1-3.9c0-2.5,0.8-4.5,2.5-6.2c1.6-1.7,4.1-2.6,7.3-2.6c1.9,0,3.5,0.3,4.8,0.8
			c1.3,0.5,2.1,0.9,2.6,1.1h0.2l1.9-1.9h1.4l-1.7,11.2h-1.7c-0.1-2.8-0.7-5-1.9-6.6s-2.8-2.5-4.9-2.5c-1.9,0-3.2,0.5-4,1.5
			c-0.8,1-1.2,2-1.2,3.1c0,1,0.4,2,1,2.9c0.7,0.9,1.6,1.9,2.6,2.9c1,1,2.1,2,3.2,3.2c1.5,1.6,2.9,3.2,4,4.8s1.7,3.5,1.7,5.8
			c0,1.4-0.4,2.8-1,4.1c-0.7,1.4-1.8,2.5-3.4,3.4S353,341,350.2,341z"/>
		<path class="st3" d="M373.1,340.9c-1.5,0-2.6-0.4-3.3-1.1s-1.1-1.6-1.1-2.7c0-0.6,0.1-1.4,0.2-2.3c0.1-0.9,0.2-1.5,0.3-1.8
			l4.9-23.5h-4.1l0.3-1.5c1.5-0.8,2.8-1.6,3.9-2.4c1-0.8,2-1.8,3-3c0.9-1.2,2-2.9,3.2-5h2.2l-6.8,33.3c-0.3,1.8-0.5,3-0.5,3.6
			c0,0.4,0.1,0.7,0.2,1s0.5,0.5,1,0.5c1.1,0,2-0.3,2.9-0.9c0.9-0.6,2-1.8,3.2-3.4l1.4,1.1c-0.7,0.9-1.5,2-2.5,3.3
			c-1,1.3-2.1,2.4-3.5,3.4S375.1,340.9,373.1,340.9z M387.2,309.4h-8l0.6-2.8h8L387.2,309.4z"/>
	</g>
</g>
<g id="图层_3">
	<path class="st3" d="M322.6,417.7H99.8c-52.8,0-95.6-42.8-95.6-95.6V99.3C4.2,46.5,47,3.7,99.8,3.7h222.8
		c52.8,0,95.6,42.8,95.6,95.6v222.8C418.2,374.9,375.4,417.7,322.6,417.7z"/>
	<path class="st5" d="M127.7,364.7l26-79c0,0,83.1,8.4,144-59c47-52,29.8-145.2-73.2-143.2c-49,0.9-91.4,23-117,63
		c-14.8,23.2-20.8,80.2,39.2,99.2"/>
</g>
<g id="图层_4" class="st0">
	<path class="st6" d="M322.6,425.7H99.8c-52.8,0-95.6-42.8-95.6-95.6V107.3c0-52.8,42.8-95.6,95.6-95.6h222.8
		c52.8,0,95.6,42.8,95.6,95.6v222.8C418.2,382.9,375.4,425.7,322.6,425.7z"/>
	<path class="st1" d="M127.7,372.7l26-79c0,0,83.1,8.4,144-59c47-52,29.8-145.2-73.2-143.2c-49,0.9-91.4,23-117,63
		c-14.8,23.2-20.8,80.2,39.2,99.2"/>
</g>
</svg>
