<?xml version="1.0" encoding="utf-8"?>
<!-- Generator: Adobe Illustrator 26.3.1, SVG Export Plug-In . SVG Version: 6.00 Build 0)  -->
<svg version="1.1" xmlns="http://www.w3.org/2000/svg" xmlns:xlink="http://www.w3.org/1999/xlink" x="0px" y="0px"
	 viewBox="0 0 1132.84 825.61" style="enable-background:new 0 0 1132.84 825.61;" xml:space="preserve">
<style type="text/css">
	.st0{opacity:0.27;fill:none;stroke:#003B55;stroke-width:40;stroke-miterlimit:10;enable-background:new    ;}
	.st1{display:none;}
	.st2{display:inline;opacity:0.27;fill:none;stroke:#003B55;stroke-width:40;stroke-miterlimit:10;enable-background:new    ;}
</style>
<g id="图层_1">
	<path class="st0" d="M1535.41,742.2l26-79c0,0,83.12,8.35,144-59c47-52,29.83-145.16-73.17-143.16c-49.03,0.95-91.4,23.04-117,63
		c-14.83,23.16-20.83,80.16,39.17,99.16"/>
	<path class="st0" d="M1643.88,970.37l26-79c0,0,83.12,8.35,144-59c47-52,29.83-145.16-73.17-143.16c-49.03,0.95-91.4,23.04-117,63
		c-14.83,23.16-20.83,80.16,39.17,99.16"/>
	<path class="st0" d="M1906.91,822.86l26-79c0,0,83.12,8.35,144-59c47-52,29.83-145.16-73.17-143.16c-49.03,0.95-91.4,23.04-117,63
		c-14.83,23.16-20.83,80.16,39.17,99.16"/>
	<path class="st0" d="M1759.88,1201.37l26-79c0,0,83.12,8.35,144-59c47-52,29.83-145.16-73.17-143.16c-49.03,0.95-91.4,23.04-117,63
		c-14.83,23.16-20.83,80.16,39.17,99.16"/>
	<path class="st0" d="M2022.91,1053.86l26-79c0,0,83.12,8.35,144-59c47-52,29.83-145.16-73.17-143.16c-49.03,0.95-91.4,23.04-117,63
		c-14.83,23.16-20.83,80.16,39.17,99.16"/>
	<path class="st0" d="M2293.91,919.86l26-79c0,0,83.12,8.35,144-59c47-52,29.83-145.16-73.17-143.16c-49.03,0.95-91.4,23.04-117,63
		c-14.83,23.16-20.83,80.16,39.17,99.16"/>
	<path class="st0" d="M4693.61,1666.65l26-79c0,0,83.12,8.35,144-59c47-52,29.83-145.16-73.17-143.16c-49.03,0.95-91.4,23.04-117,63
		c-14.83,23.16-20.83,80.16,39.17,99.16"/>
	<path class="st0" d="M2873.65,25.43l26-79c0,0,83.12,8.35,144-59c47-52,29.83-145.16-73.17-143.16c-49.03,0.95-91.4,23.04-117,63
		c-14.83,23.16-20.83,80.16,39.17,99.16"/>
	<path class="st0" d="M2982.11,253.6l26-79c0,0,83.12,8.35,144-59c47-52,29.83-145.16-73.17-143.16c-49.03,0.95-91.4,23.04-117,63
		c-14.83,23.16-20.83,80.16,39.17,99.16"/>
	<g>
		<path class="st0" d="M212.77,629.46l25.55-79.15c0,0,83.17,7.88,143.66-59.82c46.7-52.27,29-145.33-73.98-142.74
			c-49.02,1.23-91.27,23.56-116.64,63.66c-14.7,23.24-20.37,80.28,39.73,98.94"/>
		<path class="st0" d="M483,493.92l25.55-79.15c0,0,83.17,7.88,143.66-59.82c46.7-52.27,29-145.33-73.98-142.74
			c-49.02,1.23-91.27,23.56-116.64,63.66c-14.7,23.24-20.37,80.28,39.73,98.94"/>
		<path class="st0" d="M592.77,721.47l25.55-79.15c0,0,83.17,7.88,143.66-59.82c46.7-52.27,29-145.33-73.98-142.74
			c-49.02,1.23-91.27,23.56-116.64,63.66c-14.7,23.24-20.37,80.28,39.73,98.94"/>
		<path class="st0" d="M752.31,338.64l25.55-79.15c0,0,83.17,7.88,143.66-59.82c46.7-52.27,29-145.33-73.98-142.74
			c-49.02,1.23-91.27,23.56-116.64,63.66c-14.7,23.24-20.37,80.28,39.73,98.94"/>
		<path class="st0" d="M862.07,566.19l25.55-79.15c0,0,83.17,7.88,143.66-59.82c46.7-52.27,29-145.33-73.98-142.74
			c-49.02,1.23-91.27,23.56-116.64,63.66c-14.7,23.24-20.37,80.28,39.73,98.94"/>
		<path class="st0" d="M979.38,796.53l25.55-79.15c0,0,83.17,7.88,143.66-59.82c46.7-52.27,29-145.33-73.98-142.74
			c-49.02,1.23-91.27,23.56-116.64,63.66c-14.7,23.24-20.37,80.28,39.73,98.94"/>
	</g>
	<path class="st0" d="M2827.11,618.6l26-79c0,0,83.12,8.35,144-59c47-52,29.83-145.16-73.17-143.16c-49.03,0.95-91.4,23.04-117,63
		c-14.83,23.16-20.83,80.16,39.17,99.16"/>
	<path class="st0" d="M3098.11,484.6l26-79c0,0,83.12,8.35,144-59c47-52,29.83-145.16-73.17-143.16c-49.03,0.95-91.4,23.04-117,63
		c-14.83,23.16-20.83,80.16,39.17,99.16"/>
	<path class="st0" d="M1877.51,1434.57l26-79c0,0,83.12,8.35,144-59c47-52,29.83-145.16-73.17-143.16c-49.03,0.95-91.4,23.04-117,63
		c-14.83,23.16-20.83,80.16,39.17,99.16"/>
	<path class="st0" d="M2140.54,1287.06l26-79c0,0,83.12,8.35,144-59c47-52,29.83-145.16-73.17-143.16c-49.03,0.95-91.4,23.04-117,63
		c-14.83,23.16-20.83,80.16,39.17,99.16"/>
	<path class="st0" d="M2411.54,1153.06l26-79c0,0,83.12,8.35,144-59c47-52,29.83-145.16-73.17-143.16c-49.03,0.95-91.4,23.04-117,63
		c-14.83,23.16-20.83,80.16,39.17,99.16"/>
	<path class="st0" d="M1985.97,1662.74l26-79c0,0,83.12,8.35,144-59c47-52,29.83-145.16-73.17-143.16c-49.03,0.95-91.4,23.04-117,63
		c-14.83,23.16-20.83,80.16,39.17,99.16"/>
	<path class="st0" d="M2249.01,1515.23l26-79c0,0,83.12,8.35,144-59c47-52,29.83-145.16-73.17-143.16c-49.03,0.95-91.4,23.04-117,63
		c-14.83,23.16-20.83,80.16,39.17,99.16"/>
	<path class="st0" d="M2520.01,1381.23l26-79c0,0,83.12,8.35,144-59c47-52,29.83-145.16-73.17-143.16c-49.03,0.95-91.4,23.04-117,63
		c-14.83,23.16-20.83,80.16,39.17,99.16"/>
	<path class="st0" d="M2101.97,1893.74l26-79c0,0,83.12,8.35,144-59c47-52,29.83-145.16-73.17-143.16c-49.03,0.95-91.4,23.04-117,63
		c-14.83,23.16-20.83,80.16,39.17,99.16"/>
	<path class="st0" d="M2365.01,1746.23l26-79c0,0,83.12,8.35,144-59c47-52,29.83-145.16-73.17-143.16c-49.03,0.95-91.4,23.04-117,63
		c-14.83,23.16-20.83,80.16,39.17,99.16"/>
	<path class="st0" d="M2636.01,1612.23l26-79c0,0,83.12,8.35,144-59c47-52,29.83-145.16-73.17-143.16c-49.03,0.95-91.4,23.04-117,63
		c-14.83,23.16-20.83,80.16,39.17,99.16"/>
	<path class="st0" d="M2681.72,999.31l26-79c0,0,83.12,8.35,144-59c47-52,29.83-145.16-73.17-143.16c-49.03,0.95-91.4,23.04-117,63
		c-14.83,23.16-20.83,80.16,39.17,99.16"/>
	<path class="st0" d="M2944.75,851.8l26-79c0,0,83.12,8.35,144-59c47-52,29.83-145.16-73.17-143.16c-49.03,0.95-91.4,23.04-117,63
		c-14.83,23.16-20.83,80.16,39.17,99.16"/>
	<path class="st0" d="M3215.75,717.8l26-79c0,0,83.12,8.35,144-59c47-52,29.83-145.16-73.17-143.16c-49.03,0.95-91.4,23.04-117,63
		c-14.83,23.16-20.83,80.16,39.17,99.16"/>
	<path class="st0" d="M2790.19,1227.48l26-79c0,0,83.12,8.35,144-59c47-52,29.83-145.16-73.17-143.16c-49.03,0.95-91.4,23.04-117,63
		c-14.83,23.16-20.83,80.16,39.17,99.16"/>
	<path class="st0" d="M3053.22,1079.97l26-79c0,0,83.12,8.35,144-59c47-52,29.83-145.16-73.17-143.16c-49.03,0.95-91.4,23.04-117,63
		c-14.83,23.16-20.83,80.16,39.17,99.16"/>
	<path class="st0" d="M3324.22,945.97l26-79c0,0,83.12,8.35,144-59c47-52,29.83-145.16-73.17-143.16c-49.03,0.95-91.4,23.04-117,63
		c-14.83,23.16-20.83,80.16,39.17,99.16"/>
	<path class="st0" d="M2906.19,1458.48l26-79c0,0,83.12,8.35,144-59c47-52,29.83-145.16-73.17-143.16c-49.03,0.95-91.4,23.04-117,63
		c-14.83,23.16-20.83,80.16,39.17,99.16"/>
	<path class="st0" d="M3169.22,1310.97l26-79c0,0,83.12,8.35,144-59c47-52,29.83-145.16-73.17-143.16c-49.03,0.95-91.4,23.04-117,63
		c-14.83,23.16-20.83,80.16,39.17,99.16"/>
	<path class="st0" d="M3440.23,1176.97l26-79c0,0,83.12,8.35,144-59c47-52,29.83-145.16-73.17-143.16c-49.03,0.95-91.4,23.04-117,63
		c-14.83,23.16-20.83,80.16,39.17,99.16"/>
	<path class="st0" d="M3135.84-120.67l26-79c0,0,83.12,8.35,144-59c47-52,29.83-145.16-73.17-143.16c-49.03,0.95-91.4,23.04-117,63
		c-14.83,23.16-20.83,80.16,39.17,99.16"/>
	<path class="st0" d="M3398.88-268.19l26-79c0,0,83.12,8.35,144-59c47-52,29.83-145.16-73.17-143.16c-49.03,0.95-91.4,23.04-117,63
		c-14.83,23.16-20.83,80.16,39.17,99.16"/>
	<path class="st0" d="M3669.88-402.19l26-79c0,0,83.12,8.35,144-59c47-52,29.83-145.16-73.17-143.16c-49.03,0.95-91.4,23.04-117,63
		c-14.83,23.16-20.83,80.16,39.17,99.16"/>
	<path class="st0" d="M3244.31,107.49l26-79c0,0,83.12,8.35,144-59c47-52,29.83-145.16-73.17-143.16c-49.03,0.95-91.4,23.04-117,63
		c-14.83,23.16-20.83,80.16,39.17,99.16"/>
	<path class="st0" d="M3507.34-40.02l26-79c0,0,83.12,8.35,144-59c47-52,29.83-145.16-73.17-143.16c-49.03,0.95-91.4,23.04-117,63
		c-14.83,23.16-20.83,80.16,39.17,99.16"/>
	<path class="st0" d="M3778.34-174.02l26-79c0,0,83.12,8.35,144-59c47-52,29.83-145.16-73.17-143.16c-49.03,0.95-91.4,23.04-117,63
		c-14.83,23.16-20.83,80.16,39.17,99.16"/>
	<path class="st0" d="M3360.31,338.49l26-79c0,0,83.12,8.35,144-59c47-52,29.83-145.16-73.17-143.16c-49.03,0.95-91.4,23.04-117,63
		c-14.83,23.16-20.83,80.16,39.17,99.16"/>
	<path class="st0" d="M3623.34,190.98l26-79c0,0,83.12,8.35,144-59c47-52,29.83-145.16-73.17-143.16c-49.03,0.95-91.4,23.04-117,63
		c-14.83,23.16-20.83,80.16,39.17,99.16"/>
	<path class="st0" d="M3894.34,56.98l26-79c0,0,83.12,8.35,144-59c47-52,29.83-145.16-73.17-143.16c-49.03,0.95-91.4,23.04-117,63
		c-14.83,23.16-20.83,80.16,39.17,99.16"/>
	<path class="st0" d="M3940.06-555.94l26-79c0,0,83.12,8.35,144-59c47-52,29.83-145.16-73.17-143.16c-49.03,0.95-91.4,23.04-117,63
		c-14.83,23.16-20.83,80.16,39.17,99.16"/>
	<path class="st0" d="M4203.09-703.45l26-79c0,0,83.12,8.35,144-59c47-52,29.83-145.16-73.17-143.16c-49.03,0.95-91.4,23.04-117,63
		c-14.83,23.16-20.83,80.16,39.17,99.16"/>
	<path class="st0" d="M4474.09-837.45l26-79c0,0,83.12,8.35,144-59c47-52,29.83-145.16-73.17-143.16c-49.03,0.95-91.4,23.04-117,63
		c-14.83,23.16-20.83,80.16,39.17,99.16"/>
	<path class="st0" d="M4048.53-327.77l26-79c0,0,83.12,8.35,144-59c47-52,29.83-145.16-73.17-143.16c-49.03,0.95-91.4,23.04-117,63
		c-14.83,23.16-20.83,80.16,39.17,99.16"/>
	<path class="st0" d="M4311.56-475.28l26-79c0,0,83.12,8.35,144-59c47-52,29.83-145.16-73.17-143.16c-49.03,0.95-91.4,23.04-117,63
		c-14.83,23.16-20.83,80.16,39.17,99.16"/>
	<path class="st0" d="M4582.56-609.28l26-79c0,0,83.12,8.35,144-59c47-52,29.83-145.16-73.17-143.16c-49.03,0.95-91.4,23.04-117,63
		c-14.83,23.16-20.83,80.16,39.17,99.16"/>
	<path class="st0" d="M4164.53-96.77l26-79c0,0,83.12,8.35,144-59c47-52,29.83-145.16-73.17-143.16c-49.03,0.95-91.4,23.04-117,63
		c-14.83,23.16-20.83,80.16,39.17,99.16"/>
	<path class="st0" d="M4427.56-244.28l26-79c0,0,83.12,8.35,144-59c47-52,29.83-145.16-73.17-143.16c-49.03,0.95-91.4,23.04-117,63
		c-14.83,23.16-20.83,80.16,39.17,99.16"/>
	<path class="st0" d="M4698.56-378.28l26-79c0,0,83.12,8.35,144-59c47-52,29.83-145.16-73.17-143.16c-49.03,0.95-91.4,23.04-117,63
		c-14.83,23.16-20.83,80.16,39.17,99.16"/>
	<path class="st0" d="M3477.96,571.69l26-79c0,0,83.12,8.35,144-59c47-52,29.83-145.16-73.17-143.16c-49.03,0.95-91.4,23.04-117,63
		c-14.83,23.16-20.83,80.16,39.17,99.16"/>
	<path class="st0" d="M3740.99,424.18l26-79c0,0,83.12,8.35,144-59c47-52,29.83-145.16-73.17-143.16c-49.03,0.95-91.4,23.04-117,63
		c-14.83,23.16-20.83,80.16,39.17,99.16"/>
	<path class="st0" d="M4011.99,290.18l26-79c0,0,83.12,8.35,144-59c47-52,29.83-145.16-73.17-143.16c-49.03,0.95-91.4,23.04-117,63
		c-14.83,23.16-20.83,80.16,39.17,99.16"/>
	<path class="st0" d="M3586.43,799.86l26-79c0,0,83.12,8.35,144-59c47-52,29.83-145.16-73.17-143.16c-49.03,0.95-91.4,23.04-117,63
		c-14.83,23.16-20.83,80.16,39.17,99.16"/>
	<path class="st0" d="M3849.46,652.35l26-79c0,0,83.12,8.35,144-59c47-52,29.83-145.16-73.17-143.16c-49.03,0.95-91.4,23.04-117,63
		c-14.83,23.16-20.83,80.16,39.17,99.16"/>
	<path class="st0" d="M4120.46,518.35l26-79c0,0,83.12,8.35,144-59c47-52,29.83-145.16-73.17-143.16c-49.03,0.95-91.4,23.04-117,63
		c-14.83,23.16-20.83,80.16,39.17,99.16"/>
	<path class="st0" d="M3702.43,1030.86l26-79c0,0,83.12,8.35,144-59c47-52,29.83-145.16-73.17-143.16c-49.03,0.95-91.4,23.04-117,63
		c-14.83,23.16-20.83,80.16,39.17,99.16"/>
	<path class="st0" d="M3965.46,883.35l26-79c0,0,83.12,8.35,144-59c47-52,29.83-145.16-73.17-143.16c-49.03,0.95-91.4,23.04-117,63
		c-14.83,23.16-20.83,80.16,39.17,99.16"/>
	<path class="st0" d="M4236.46,749.35l26-79c0,0,83.12,8.35,144-59c47-52,29.83-145.16-73.17-143.16c-49.03,0.95-91.4,23.04-117,63
		c-14.83,23.16-20.83,80.16,39.17,99.16"/>
	<path class="st0" d="M4282.17,136.43l26-79c0,0,83.12,8.35,144-59c47-52,29.83-145.16-73.17-143.16c-49.03,0.95-91.4,23.04-117,63
		c-14.83,23.16-20.83,80.16,39.17,99.16"/>
	<path class="st0" d="M4545.21-11.08l26-79c0,0,83.12,8.35,144-59c47-52,29.83-145.16-73.17-143.16c-49.03,0.95-91.4,23.04-117,63
		c-14.83,23.16-20.83,80.16,39.17,99.16"/>
	<path class="st0" d="M4816.21-145.08l26-79c0,0,83.12,8.35,144-59c47-52,29.83-145.16-73.17-143.16c-49.03,0.95-91.4,23.04-117,63
		c-14.83,23.16-20.83,80.16,39.17,99.16"/>
	<path class="st0" d="M4390.63,364.6l26-79c0,0,83.12,8.35,144-59c47-52,29.83-145.16-73.17-143.16c-49.03,0.95-91.4,23.04-117,63
		c-14.83,23.16-20.83,80.16,39.17,99.16"/>
	<path class="st0" d="M4653.67,217.09l26-79c0,0,83.12,8.35,144-59c47-52,29.83-145.16-73.17-143.16c-49.03,0.95-91.4,23.04-117,63
		c-14.83,23.16-20.83,80.16,39.17,99.16"/>
	<path class="st0" d="M4924.67,83.09l26-79c0,0,83.12,8.35,144-59c47-52,29.83-145.16-73.17-143.16c-49.03,0.95-91.4,23.04-117,63
		c-14.83,23.16-20.83,80.16,39.17,99.16"/>
	<path class="st0" d="M4506.63,595.6l26-79c0,0,83.12,8.35,144-59c47-52,29.83-145.16-73.17-143.16c-49.03,0.95-91.4,23.04-117,63
		c-14.83,23.16-20.83,80.16,39.17,99.16"/>
	<path class="st0" d="M4769.67,448.09l26-79c0,0,83.12,8.35,144-59c47-52,29.83-145.16-73.17-143.16c-49.03,0.95-91.4,23.04-117,63
		c-14.83,23.16-20.83,80.16,39.17,99.16"/>
	<path class="st0" d="M5040.67,314.09l26-79c0,0,83.12,8.35,144-59c47-52,29.83-145.16-73.17-143.16c-49.03,0.95-91.4,23.04-117,63
		c-14.83,23.16-20.83,80.16,39.17,99.16"/>
</g>
<g id="图层_2" class="st1">
	<path class="st2" d="M-1127.04,1236.17l26-79c0,0,83.12,8.35,144-59c47-52,29.83-145.16-73.17-143.16
		c-49.03,0.95-91.4,23.04-117,63c-14.83,23.16-20.83,80.16,39.17,99.16"/>
	<path class="st2" d="M-864.01,1088.66l26-79c0,0,83.12,8.35,144-59c47-52,29.83-145.16-73.17-143.16c-49.03,0.95-91.4,23.04-117,63
		c-14.83,23.16-20.83,80.16,39.17,99.16"/>
	<path class="st2" d="M-593.01,954.66l26-79c0,0,83.12,8.35,144-59c47-52,29.83-145.16-73.17-143.16c-49.03,0.95-91.4,23.04-117,63
		c-14.83,23.16-20.83,80.16,39.17,99.16"/>
	<path class="st2" d="M-1018.57,1464.34l26-79c0,0,83.12,8.35,144-59c47-52,29.83-145.16-73.17-143.16
		c-49.03,0.95-91.4,23.04-117,63c-14.83,23.16-20.83,80.16,39.17,99.16"/>
	<path class="st2" d="M-755.54,1316.83l26-79c0,0,83.12,8.35,144-59c47-52,29.83-145.16-73.17-143.16c-49.03,0.95-91.4,23.04-117,63
		c-14.83,23.16-20.83,80.16,39.17,99.16"/>
	<path class="st2" d="M-484.54,1182.83l26-79c0,0,83.12,8.35,144-59c47-52,29.83-145.16-73.17-143.16c-49.03,0.95-91.4,23.04-117,63
		c-14.83,23.16-20.83,80.16,39.17,99.16"/>
	<path class="st2" d="M-902.57,1695.34l26-79c0,0,83.12,8.35,144-59c47-52,29.83-145.16-73.17-143.16c-49.03,0.95-91.4,23.04-117,63
		c-14.83,23.16-20.83,80.16,39.17,99.16"/>
	<path class="st2" d="M-639.54,1547.83l26-79c0,0,83.12,8.35,144-59c47-52,29.83-145.16-73.17-143.16c-49.03,0.95-91.4,23.04-117,63
		c-14.83,23.16-20.83,80.16,39.17,99.16"/>
	<path class="st2" d="M-368.54,1413.83l26-79c0,0,83.12,8.35,144-59c47-52,29.83-145.16-73.17-143.16c-49.03,0.95-91.4,23.04-117,63
		c-14.83,23.16-20.83,80.16,39.17,99.16"/>
	<path class="st2" d="M-322.83,800.91l26-79c0,0,83.12,8.35,144-59c47-52,29.83-145.16-73.17-143.16c-49.03,0.95-91.4,23.04-117,63
		c-14.83,23.16-20.83,80.16,39.17,99.16"/>
	<path class="st2" d="M-59.8,653.4l26-79c0,0,83.12,8.35,144-59c47-52,29.83-145.16-73.17-143.16c-49.03,0.95-91.4,23.04-117,63
		C-94.8,458.4-100.8,515.4-40.8,534.4"/>
	<path class="st2" d="M211.2,519.4l26-79c0,0,83.12,8.35,144-59c47-52,29.83-145.16-73.17-143.16c-49.03,0.95-91.4,23.04-117,63
		C176.2,324.4,170.2,381.4,230.2,400.4"/>
	<path class="st2" d="M-214.36,1029.08l26-79c0,0,83.12,8.35,144-59c47-52,29.83-145.16-73.17-143.16c-49.03,0.95-91.4,23.04-117,63
		c-14.83,23.16-20.83,80.16,39.17,99.16"/>
	<path class="st2" d="M48.67,881.57l26-79c0,0,83.12,8.35,144-59c47-52,29.83-145.16-73.17-143.16c-49.03,0.95-91.4,23.04-117,63
		c-14.83,23.16-20.83,80.16,39.17,99.16"/>
	<path class="st2" d="M319.67,747.57l26-79c0,0,83.12,8.35,144-59c47-52,29.83-145.16-73.17-143.16c-49.03,0.95-91.4,23.04-117,63
		c-14.83,23.16-20.83,80.16,39.17,99.16"/>
	<path class="st2" d="M-98.36,1260.08l26-79c0,0,83.12,8.35,144-59c47-52,29.83-145.16-73.17-143.16c-49.03,0.95-91.4,23.04-117,63
		c-14.83,23.16-20.83,80.16,39.17,99.16"/>
	<path class="st2" d="M164.67,1112.57l26-79c0,0,83.12,8.35,144-59c47-52,29.83-145.16-73.17-143.16c-49.03,0.95-91.4,23.04-117,63
		c-14.83,23.16-20.83,80.16,39.17,99.16"/>
	<path class="st2" d="M435.67,978.57l26-79c0,0,83.12,8.35,144-59c47-52,29.83-145.16-73.17-143.16c-49.03,0.95-91.4,23.04-117,63
		c-14.83,23.16-20.83,80.16,39.17,99.16"/>
	<path class="st2" d="M-784.94,1928.54l26-79c0,0,83.12,8.35,144-59c47-52,29.83-145.16-73.17-143.16c-49.03,0.95-91.4,23.04-117,63
		c-14.83,23.16-20.83,80.16,39.17,99.16"/>
	<path class="st2" d="M-521.9,1781.03l26-79c0,0,83.12,8.35,144-59c47-52,29.83-145.16-73.17-143.16c-49.03,0.95-91.4,23.04-117,63
		c-14.83,23.16-20.83,80.16,39.17,99.16"/>
	<path class="st2" d="M-250.9,1647.03l26-79c0,0,83.12,8.35,144-59c47-52,29.83-145.16-73.17-143.16c-49.03,0.95-91.4,23.04-117,63
		c-14.83,23.16-20.83,80.16,39.17,99.16"/>
	<path class="st2" d="M-676.47,2156.71l26-79c0,0,83.12,8.35,144-59c47-52,29.83-145.16-73.17-143.16c-49.03,0.95-91.4,23.04-117,63
		c-14.83,23.16-20.83,80.16,39.17,99.16"/>
	<path class="st2" d="M-413.43,2009.2l26-79c0,0,83.12,8.35,144-59c47-52,29.83-145.16-73.17-143.16c-49.03,0.95-91.4,23.04-117,63
		c-14.83,23.16-20.83,80.16,39.17,99.16"/>
	<path class="st2" d="M-142.43,1875.2l26-79c0,0,83.12,8.35,144-59c47-52,29.83-145.16-73.17-143.16c-49.03,0.95-91.4,23.04-117,63
		c-14.83,23.16-20.83,80.16,39.17,99.16"/>
	<path class="st2" d="M-560.47,2387.71l26-79c0,0,83.12,8.35,144-59c47-52,29.83-145.16-73.17-143.16c-49.03,0.95-91.4,23.04-117,63
		c-14.83,23.16-20.83,80.16,39.17,99.16"/>
	<path class="st2" d="M-297.43,2240.2l26-79c0,0,83.12,8.35,144-59c47-52,29.83-145.16-73.17-143.16c-49.03,0.95-91.4,23.04-117,63
		c-14.83,23.16-20.83,80.16,39.17,99.16"/>
	<path class="st2" d="M-26.43,2106.2l26-79c0,0,83.12,8.35,144-59c47-52,29.83-145.16-73.17-143.16c-49.03,0.95-91.4,23.04-117,63
		c-14.83,23.16-20.83,80.16,39.17,99.16"/>
	<path class="st2" d="M19.28,1493.28l26-79c0,0,83.12,8.35,144-59c47-52,29.83-145.16-73.17-143.16c-49.03,0.95-91.4,23.04-117,63
		c-14.83,23.16-20.83,80.16,39.17,99.16"/>
	<path class="st2" d="M282.31,1345.77l26-79c0,0,83.12,8.35,144-59c47-52,29.83-145.16-73.17-143.16c-49.03,0.95-91.4,23.04-117,63
		c-14.83,23.16-20.83,80.16,39.17,99.16"/>
	<path class="st2" d="M553.31,1211.77l26-79c0,0,83.12,8.35,144-59c47-52,29.83-145.16-73.17-143.16c-49.03,0.95-91.4,23.04-117,63
		c-14.83,23.16-20.83,80.16,39.17,99.16"/>
	<path class="st2" d="M127.75,1721.45l26-79c0,0,83.12,8.35,144-59c47-52,29.83-145.16-73.17-143.16c-49.03,0.95-91.4,23.04-117,63
		c-14.83,23.16-20.83,80.16,39.17,99.16"/>
	<path class="st2" d="M390.78,1573.94l26-79c0,0,83.12,8.35,144-59c47-52,29.83-145.16-73.17-143.16c-49.03,0.95-91.4,23.04-117,63
		c-14.83,23.16-20.83,80.16,39.17,99.16"/>
	<path class="st2" d="M661.78,1439.94l26-79c0,0,83.12,8.35,144-59c47-52,29.83-145.16-73.17-143.16c-49.03,0.95-91.4,23.04-117,63
		c-14.83,23.16-20.83,80.16,39.17,99.16"/>
	<path class="st2" d="M243.75,1952.45l26-79c0,0,83.12,8.35,144-59c47-52,29.83-145.16-73.17-143.16c-49.03,0.95-91.4,23.04-117,63
		c-14.83,23.16-20.83,80.16,39.17,99.16"/>
	<path class="st2" d="M506.78,1804.94l26-79c0,0,83.12,8.35,144-59c47-52,29.83-145.16-73.17-143.16c-49.03,0.95-91.4,23.04-117,63
		c-14.83,23.16-20.83,80.16,39.17,99.16"/>
	<path class="st2" d="M777.78,1670.94l26-79c0,0,83.12,8.35,144-59c47-52,29.83-145.16-73.17-143.16c-49.03,0.95-91.4,23.04-117,63
		c-14.83,23.16-20.83,80.16,39.17,99.16"/>
	<path class="st2" d="M473.4,373.3l26-79c0,0,83.12,8.35,144-59c47-52,29.83-145.16-73.17-143.16c-49.03,0.95-91.4,23.04-117,63
		C438.4,178.3,432.4,235.3,492.4,254.3"/>
	<path class="st2" d="M736.43,225.78l26-79c0,0,83.12,8.35,144-59c47-52,29.83-145.16-73.17-143.16c-49.03,0.95-91.4,23.04-117,63
		c-14.83,23.16-20.83,80.16,39.17,99.16"/>
	<path class="st2" d="M1007.43,91.78l26-79c0,0,83.12,8.35,144-59c47-52,29.83-145.16-73.17-143.16c-49.03,0.95-91.4,23.04-117,63
		c-14.83,23.16-20.83,80.16,39.17,99.16"/>
	<path class="st2" d="M581.87,601.46l26-79c0,0,83.12,8.35,144-59c47-52,29.83-145.16-73.17-143.16c-49.03,0.95-91.4,23.04-117,63
		c-14.83,23.16-20.83,80.16,39.17,99.16"/>
	<path class="st2" d="M844.9,453.95l26-79c0,0,83.12,8.35,144-59c47-52,29.83-145.16-73.17-143.16c-49.03,0.95-91.4,23.04-117,63
		c-14.83,23.16-20.83,80.16,39.17,99.16"/>
	<path class="st2" d="M1115.9,319.95l26-79c0,0,83.12,8.35,144-59c47-52,29.83-145.16-73.17-143.16c-49.03,0.95-91.4,23.04-117,63
		c-14.83,23.16-20.83,80.16,39.17,99.16"/>
	<path class="st2" d="M697.87,832.46l26-79c0,0,83.12,8.35,144-59c47-52,29.83-145.16-73.17-143.16c-49.03,0.95-91.4,23.04-117,63
		c-14.83,23.16-20.83,80.16,39.17,99.16"/>
	<path class="st2" d="M960.9,684.95l26-79c0,0,83.12,8.35,144-59c47-52,29.83-145.16-73.17-143.16c-49.03,0.95-91.4,23.04-117,63
		c-14.83,23.16-20.83,80.16,39.17,99.16"/>
	<path class="st2" d="M1231.9,550.95l26-79c0,0,83.12,8.35,144-59c47-52,29.83-145.16-73.17-143.16c-49.03,0.95-91.4,23.04-117,63
		c-14.83,23.16-20.83,80.16,39.17,99.16"/>
	<path class="st2" d="M1277.62-61.97l26-79c0,0,83.12,8.35,144-59c47-52,29.83-145.16-73.17-143.16c-49.03,0.95-91.4,23.04-117,63
		c-14.83,23.16-20.83,80.16,39.17,99.16"/>
	<path class="st2" d="M1540.65-209.48l26-79c0,0,83.12,8.35,144-59c47-52,29.83-145.16-73.17-143.16c-49.03,0.95-91.4,23.04-117,63
		c-14.83,23.16-20.83,80.16,39.17,99.16"/>
	<path class="st2" d="M1811.65-343.48l26-79c0,0,83.12,8.35,144-59c47-52,29.83-145.16-73.17-143.16c-49.03,0.95-91.4,23.04-117,63
		c-14.83,23.16-20.83,80.16,39.17,99.16"/>
	<path class="st2" d="M1386.09,166.2l26-79c0,0,83.12,8.35,144-59c47-52,29.83-145.16-73.17-143.16c-49.03,0.95-91.4,23.04-117,63
		c-14.83,23.16-20.83,80.16,39.17,99.16"/>
	<path class="st2" d="M1649.12,18.69l26-79c0,0,83.12,8.35,144-59c47-52,29.83-145.16-73.17-143.16c-49.03,0.95-91.4,23.04-117,63
		c-14.83,23.16-20.83,80.16,39.17,99.16"/>
	<path class="st2" d="M1920.12-115.31l26-79c0,0,83.12,8.35,144-59c47-52,29.83-145.16-73.17-143.16c-49.03,0.95-91.4,23.04-117,63
		c-14.83,23.16-20.83,80.16,39.17,99.16"/>
	<path class="st2" d="M1502.09,397.2l26-79c0,0,83.12,8.35,144-59c47-52,29.83-145.16-73.17-143.16c-49.03,0.95-91.4,23.04-117,63
		c-14.83,23.16-20.83,80.16,39.17,99.16"/>
	<path class="st2" d="M1765.12,249.69l26-79c0,0,83.12,8.35,144-59c47-52,29.83-145.16-73.17-143.16c-49.03,0.95-91.4,23.04-117,63
		c-14.83,23.16-20.83,80.16,39.17,99.16"/>
	<path class="st2" d="M2036.12,115.69l26-79c0,0,83.12,8.35,144-59c47-52,29.83-145.16-73.17-143.16c-49.03,0.95-91.4,23.04-117,63
		c-14.83,23.16-20.83,80.16,39.17,99.16"/>
	<path class="st2" d="M815.51,1065.66l26-79c0,0,83.12,8.35,144-59c47-52,29.83-145.16-73.17-143.16c-49.03,0.95-91.4,23.04-117,63
		c-14.83,23.16-20.83,80.16,39.17,99.16"/>
	<path class="st2" d="M1078.54,918.15l26-79c0,0,83.12,8.35,144-59c47-52,29.83-145.16-73.17-143.16c-49.03,0.95-91.4,23.04-117,63
		c-14.83,23.16-20.83,80.16,39.17,99.16"/>
	<path class="st2" d="M1349.54,784.15l26-79c0,0,83.12,8.35,144-59c47-52,29.83-145.16-73.17-143.16c-49.03,0.95-91.4,23.04-117,63
		c-14.83,23.16-20.83,80.16,39.17,99.16"/>
	<path class="st2" d="M923.98,1293.83l26-79c0,0,83.12,8.35,144-59c47-52,29.83-145.16-73.17-143.16c-49.03,0.95-91.4,23.04-117,63
		c-14.83,23.16-20.83,80.16,39.17,99.16"/>
	<path class="st2" d="M1187.01,1146.32l26-79c0,0,83.12,8.35,144-59c47-52,29.83-145.16-73.17-143.16c-49.03,0.95-91.4,23.04-117,63
		c-14.83,23.16-20.83,80.16,39.17,99.16"/>
	<path class="st2" d="M1458.01,1012.32l26-79c0,0,83.12,8.35,144-59c47-52,29.83-145.16-73.17-143.16c-49.03,0.95-91.4,23.04-117,63
		c-14.83,23.16-20.83,80.16,39.17,99.16"/>
	<path class="st2" d="M1039.98,1524.83l26-79c0,0,83.12,8.35,144-59c47-52,29.83-145.16-73.17-143.16c-49.03,0.95-91.4,23.04-117,63
		c-14.83,23.16-20.83,80.16,39.17,99.16"/>
	<path class="st2" d="M1303.01,1377.32l26-79c0,0,83.12,8.35,144-59c47-52,29.83-145.16-73.17-143.16c-49.03,0.95-91.4,23.04-117,63
		c-14.83,23.16-20.83,80.16,39.17,99.16"/>
	<path class="st2" d="M1574.01,1243.32l26-79c0,0,83.12,8.35,144-59c47-52,29.83-145.16-73.17-143.16c-49.03,0.95-91.4,23.04-117,63
		c-14.83,23.16-20.83,80.16,39.17,99.16"/>
	<path class="st2" d="M1619.72,630.4l26-79c0,0,83.12,8.35,144-59c47-52,29.83-145.16-73.17-143.16c-49.03,0.95-91.4,23.04-117,63
		c-14.83,23.16-20.83,80.16,39.17,99.16"/>
	<path class="st2" d="M1882.76,482.89l26-79c0,0,83.12,8.35,144-59c47-52,29.83-145.16-73.17-143.16c-49.03,0.95-91.4,23.04-117,63
		c-14.83,23.16-20.83,80.16,39.17,99.16"/>
	<path class="st2" d="M2153.76,348.89l26-79c0,0,83.12,8.35,144-59c47-52,29.83-145.16-73.17-143.16c-49.03,0.95-91.4,23.04-117,63
		c-14.83,23.16-20.83,80.16,39.17,99.16"/>
	<path class="st2" d="M1728.19,858.57l26-79c0,0,83.12,8.35,144-59c47-52,29.83-145.16-73.17-143.16c-49.03,0.95-91.4,23.04-117,63
		c-14.83,23.16-20.83,80.16,39.17,99.16"/>
	<path class="st2" d="M1991.23,711.06l26-79c0,0,83.12,8.35,144-59c47-52,29.83-145.16-73.17-143.16c-49.03,0.95-91.4,23.04-117,63
		c-14.83,23.16-20.83,80.16,39.17,99.16"/>
	<path class="st2" d="M2262.23,577.06l26-79c0,0,83.12,8.35,144-59c47-52,29.83-145.16-73.17-143.16c-49.03,0.95-91.4,23.04-117,63
		c-14.83,23.16-20.83,80.16,39.17,99.16"/>
	<path class="st2" d="M1844.19,1089.57l26-79c0,0,83.12,8.35,144-59c47-52,29.83-145.16-73.17-143.16c-49.03,0.95-91.4,23.04-117,63
		c-14.83,23.16-20.83,80.16,39.17,99.16"/>
	<path class="st2" d="M2107.23,942.06l26-79c0,0,83.12,8.35,144-59c47-52,29.83-145.16-73.17-143.16c-49.03,0.95-91.4,23.04-117,63
		c-14.83,23.16-20.83,80.16,39.17,99.16"/>
	<path class="st2" d="M2378.23,808.06l26-79c0,0,83.12,8.35,144-59c47-52,29.83-145.16-73.17-143.16c-49.03,0.95-91.4,23.04-117,63
		c-14.83,23.16-20.83,80.16,39.17,99.16"/>
</g>
</svg>
