<?xml version="1.0" encoding="utf-8"?>
<!-- Generator: Adobe Illustrator 26.3.1, SVG Export Plug-In . SVG Version: 6.00 Build 0)  -->
<svg version="1.1" id="图层_1" xmlns="http://www.w3.org/2000/svg" xmlns:xlink="http://www.w3.org/1999/xlink" x="0px" y="0px"
	 viewBox="0 0 1366 768" style="enable-background:new 0 0 1366 768;" xml:space="preserve">
<style type="text/css">
	.st0{opacity:0.27;fill:none;stroke:#003B55;stroke-width:40;stroke-miterlimit:10;}
</style>
<path class="st0" d="M185.53,722.35l26-79c0,0,83.12,8.35,144-59c47-52,29.83-145.16-73.17-143.16c-49.03,0.95-91.4,23.04-117,63
	c-14.83,23.16-20.83,80.16,39.17,99.16"/>
<path class="st0" d="M448.56,574.84l26-79c0,0,83.12,8.35,144-59c47-52,29.83-145.16-73.17-143.16c-49.03,0.95-91.4,23.04-117,63
	c-14.83,23.16-20.83,80.16,39.17,99.16"/>
<path class="st0" d="M719.56,440.84l26-79c0,0,83.12,8.35,144-59c47-52,29.83-145.16-73.17-143.16c-49.03,0.95-91.4,23.04-117,63
	c-14.83,23.16-20.83,80.16,39.17,99.16"/>
<path class="st0" d="M294,950.52l26-79c0,0,83.12,8.35,144-59c47-52,29.83-145.16-73.17-143.16c-49.03,0.95-91.4,23.04-117,63
	C259,755.52,253,812.52,313,831.52"/>
<path class="st0" d="M557.03,803.01l26-79c0,0,83.12,8.35,144-59c47-52,29.83-145.16-73.17-143.16c-49.03,0.95-91.4,23.04-117,63
	c-14.83,23.16-20.83,80.16,39.17,99.16"/>
<path class="st0" d="M828.03,669.01l26-79c0,0,83.12,8.35,144-59c47-52,29.83-145.16-73.17-143.16c-49.03,0.95-91.4,23.04-117,63
	c-14.83,23.16-20.83,80.16,39.17,99.16"/>
<path class="st0" d="M410,1181.52l26-79c0,0,83.12,8.35,144-59c47-52,29.83-145.16-73.17-143.16c-49.03,0.95-91.4,23.04-117,63
	C375,986.52,369,1043.52,429,1062.52"/>
<path class="st0" d="M673.03,1034.01l26-79c0,0,83.12,8.35,144-59c47-52,29.83-145.16-73.17-143.16c-49.03,0.95-91.4,23.04-117,63
	c-14.83,23.16-20.83,80.16,39.17,99.16"/>
<path class="st0" d="M944.03,900.01l26-79c0,0,83.12,8.35,144-59c47-52,29.83-145.16-73.17-143.16c-49.03,0.95-91.4,23.04-117,63
	c-14.83,23.16-20.83,80.16,39.17,99.16"/>
<path class="st0" d="M989.74,287.09l26-79c0,0,83.12,8.35,144-59c47-52,29.83-145.16-73.17-143.16c-49.03,0.95-91.4,23.04-117,63
	c-14.83,23.16-20.83,80.16,39.17,99.16"/>
<path class="st0" d="M1252.77,139.58l26-79c0,0,83.12,8.35,144-59c47-52,29.83-145.16-73.17-143.16c-49.03,0.95-91.4,23.04-117,63
	c-14.83,23.16-20.83,80.16,39.17,99.16"/>
<path class="st0" d="M1523.77,5.58l26-79c0,0,83.12,8.35,144-59c47-52,29.83-145.16-73.17-143.16c-49.03,0.95-91.4,23.04-117,63
	c-14.83,23.16-20.83,80.16,39.17,99.16"/>
<path class="st0" d="M1098.21,515.26l26-79c0,0,83.12,8.35,144-59c47-52,29.83-145.16-73.17-143.16c-49.03,0.95-91.4,23.04-117,63
	c-14.83,23.16-20.83,80.16,39.17,99.16"/>
<path class="st0" d="M1361.24,367.75l26-79c0,0,83.12,8.35,144-59c47-52,29.83-145.16-73.17-143.16c-49.03,0.95-91.4,23.04-117,63
	c-14.83,23.16-20.83,80.16,39.17,99.16"/>
<path class="st0" d="M1632.24,233.75l26-79c0,0,83.12,8.35,144-59c47-52,29.83-145.16-73.17-143.16c-49.03,0.95-91.4,23.04-117,63
	c-14.83,23.16-20.83,80.16,39.17,99.16"/>
<path class="st0" d="M1214.21,746.26l26-79c0,0,83.12,8.35,144-59c47-52,29.83-145.16-73.17-143.16c-49.03,0.95-91.4,23.04-117,63
	c-14.83,23.16-20.83,80.16,39.17,99.16"/>
<path class="st0" d="M1477.24,598.75l26-79c0,0,83.12,8.35,144-59c47-52,29.83-145.16-73.17-143.16c-49.03,0.95-91.4,23.04-117,63
	c-14.83,23.16-20.83,80.16,39.17,99.16"/>
<path class="st0" d="M1748.24,464.75l26-79c0,0,83.12,8.35,144-59c47-52,29.83-145.16-73.17-143.16c-49.03,0.95-91.4,23.04-117,63
	c-14.83,23.16-20.83,80.16,39.17,99.16"/>
<path class="st0" d="M527.63,1414.72l26-79c0,0,83.12,8.35,144-59c47-52,29.83-145.16-73.17-143.16c-49.03,0.95-91.4,23.04-117,63
	c-14.83,23.16-20.83,80.16,39.17,99.16"/>
<path class="st0" d="M790.67,1267.21l26-79c0,0,83.12,8.35,144-59c47-52,29.83-145.16-73.17-143.16c-49.03,0.95-91.4,23.04-117,63
	c-14.83,23.16-20.83,80.16,39.17,99.16"/>
<path class="st0" d="M1061.67,1133.21l26-79c0,0,83.12,8.35,144-59c47-52,29.83-145.16-73.17-143.16c-49.03,0.95-91.4,23.04-117,63
	c-14.83,23.16-20.83,80.16,39.17,99.16"/>
<path class="st0" d="M636.1,1642.89l26-79c0,0,83.12,8.35,144-59c47-52,29.83-145.16-73.17-143.16c-49.03,0.95-91.4,23.04-117,63
	c-14.83,23.16-20.83,80.16,39.17,99.16"/>
<path class="st0" d="M899.14,1495.38l26-79c0,0,83.12,8.35,144-59c47-52,29.83-145.16-73.17-143.16c-49.03,0.95-91.4,23.04-117,63
	c-14.83,23.16-20.83,80.16,39.17,99.16"/>
<path class="st0" d="M1170.14,1361.38l26-79c0,0,83.12,8.35,144-59c47-52,29.83-145.16-73.17-143.16c-49.03,0.95-91.4,23.04-117,63
	c-14.83,23.16-20.83,80.16,39.17,99.16"/>
<path class="st0" d="M752.1,1873.89l26-79c0,0,83.12,8.35,144-59c47-52,29.83-145.16-73.17-143.16c-49.03,0.95-91.4,23.04-117,63
	c-14.83,23.16-20.83,80.16,39.17,99.16"/>
<path class="st0" d="M1015.14,1726.38l26-79c0,0,83.12,8.35,144-59c47-52,29.83-145.16-73.17-143.16c-49.03,0.95-91.4,23.04-117,63
	c-14.83,23.16-20.83,80.16,39.17,99.16"/>
<path class="st0" d="M1286.14,1592.38l26-79c0,0,83.12,8.35,144-59c47-52,29.83-145.16-73.17-143.16c-49.03,0.95-91.4,23.04-117,63
	c-14.83,23.16-20.83,80.16,39.17,99.16"/>
<path class="st0" d="M1331.85,979.46l26-79c0,0,83.12,8.35,144-59c47-52,29.83-145.16-73.17-143.16c-49.03,0.95-91.4,23.04-117,63
	c-14.83,23.16-20.83,80.16,39.17,99.16"/>
<path class="st0" d="M1594.88,831.95l26-79c0,0,83.12,8.35,144-59c47-52,29.83-145.16-73.17-143.16c-49.03,0.95-91.4,23.04-117,63
	c-14.83,23.16-20.83,80.16,39.17,99.16"/>
<path class="st0" d="M1865.88,697.95l26-79c0,0,83.12,8.35,144-59c47-52,29.83-145.16-73.17-143.16c-49.03,0.95-91.4,23.04-117,63
	c-14.83,23.16-20.83,80.16,39.17,99.16"/>
<path class="st0" d="M1440.32,1207.63l26-79c0,0,83.12,8.35,144-59c47-52,29.83-145.16-73.17-143.16c-49.03,0.95-91.4,23.04-117,63
	c-14.83,23.16-20.83,80.16,39.17,99.16"/>
<path class="st0" d="M1703.35,1060.12l26-79c0,0,83.12,8.35,144-59c47-52,29.83-145.16-73.17-143.16c-49.03,0.95-91.4,23.04-117,63
	c-14.83,23.16-20.83,80.16,39.17,99.16"/>
<path class="st0" d="M1974.35,926.12l26-79c0,0,83.12,8.35,144-59c47-52,29.83-145.16-73.17-143.16c-49.03,0.95-91.4,23.04-117,63
	c-14.83,23.16-20.83,80.16,39.17,99.16"/>
<path class="st0" d="M1556.32,1438.63l26-79c0,0,83.12,8.35,144-59c47-52,29.83-145.16-73.17-143.16c-49.03,0.95-91.4,23.04-117,63
	c-14.83,23.16-20.83,80.16,39.17,99.16"/>
<path class="st0" d="M1819.35,1291.12l26-79c0,0,83.12,8.35,144-59c47-52,29.83-145.16-73.17-143.16c-49.03,0.95-91.4,23.04-117,63
	c-14.83,23.16-20.83,80.16,39.17,99.16"/>
<path class="st0" d="M2090.35,1157.12l26-79c0,0,83.12,8.35,144-59c47-52,29.83-145.16-73.17-143.16c-49.03,0.95-91.4,23.04-117,63
	c-14.83,23.16-20.83,80.16,39.17,99.16"/>
<path class="st0" d="M1785.97-140.52l26-79c0,0,83.12,8.35,144-59c47-52,29.83-145.16-73.17-143.16c-49.03,0.95-91.4,23.04-117,63
	c-14.83,23.16-20.83,80.16,39.17,99.16"/>
<path class="st0" d="M2049-288.04l26-79c0,0,83.12,8.35,144-59c47-52,29.83-145.16-73.17-143.16c-49.03,0.95-91.4,23.04-117,63
	C2014-483.04,2008-426.04,2068-407.04"/>
<path class="st0" d="M2320-422.04l26-79c0,0,83.12,8.35,144-59c47-52,29.83-145.16-73.17-143.16c-49.03,0.95-91.4,23.04-117,63
	C2285-617.04,2279-560.04,2339-541.04"/>
<path class="st0" d="M1894.44,87.64l26-79c0,0,83.12,8.35,144-59c47-52,29.83-145.16-73.17-143.16c-49.03,0.95-91.4,23.04-117,63
	c-14.83,23.16-20.83,80.16,39.17,99.16"/>
<path class="st0" d="M2157.47-59.87l26-79c0,0,83.12,8.35,144-59c47-52,29.83-145.16-73.17-143.16c-49.03,0.95-91.4,23.04-117,63
	c-14.83,23.16-20.83,80.16,39.17,99.16"/>
<path class="st0" d="M2428.47-193.87l26-79c0,0,83.12,8.35,144-59c47-52,29.83-145.16-73.17-143.16c-49.03,0.95-91.4,23.04-117,63
	c-14.83,23.16-20.83,80.16,39.17,99.16"/>
<path class="st0" d="M2010.44,318.64l26-79c0,0,83.12,8.35,144-59c47-52,29.83-145.16-73.17-143.16c-49.03,0.95-91.4,23.04-117,63
	c-14.83,23.16-20.83,80.16,39.17,99.16"/>
<path class="st0" d="M2273.47,171.13l26-79c0,0,83.12,8.35,144-59c47-52,29.83-145.16-73.17-143.16c-49.03,0.95-91.4,23.04-117,63
	c-14.83,23.16-20.83,80.16,39.17,99.16"/>
<path class="st0" d="M2544.47,37.13l26-79c0,0,83.12,8.35,144-59c47-52,29.83-145.16-73.17-143.16c-49.03,0.95-91.4,23.04-117,63
	c-14.83,23.16-20.83,80.16,39.17,99.16"/>
<path class="st0" d="M2590.19-575.79l26-79c0,0,83.12,8.35,144-59c47-52,29.83-145.16-73.17-143.16c-49.03,0.95-91.4,23.04-117,63
	c-14.83,23.16-20.83,80.16,39.17,99.16"/>
<path class="st0" d="M2853.22-723.3l26-79c0,0,83.12,8.35,144-59c47-52,29.83-145.16-73.17-143.16c-49.03,0.95-91.4,23.04-117,63
	c-14.83,23.16-20.83,80.16,39.17,99.16"/>
<path class="st0" d="M3124.22-857.3l26-79c0,0,83.12,8.35,144-59c47-52,29.83-145.16-73.17-143.16c-49.03,0.95-91.4,23.04-117,63
	c-14.83,23.16-20.83,80.16,39.17,99.16"/>
<path class="st0" d="M2698.66-347.62l26-79c0,0,83.12,8.35,144-59c47-52,29.83-145.16-73.17-143.16c-49.03,0.95-91.4,23.04-117,63
	c-14.83,23.16-20.83,80.16,39.17,99.16"/>
<path class="st0" d="M2961.69-495.13l26-79c0,0,83.12,8.35,144-59c47-52,29.83-145.16-73.17-143.16c-49.03,0.95-91.4,23.04-117,63
	c-14.83,23.16-20.83,80.16,39.17,99.16"/>
<path class="st0" d="M3232.69-629.13l26-79c0,0,83.12,8.35,144-59c47-52,29.83-145.16-73.17-143.16c-49.03,0.95-91.4,23.04-117,63
	c-14.83,23.16-20.83,80.16,39.17,99.16"/>
<path class="st0" d="M2814.66-116.62l26-79c0,0,83.12,8.35,144-59c47-52,29.83-145.16-73.17-143.16c-49.03,0.95-91.4,23.04-117,63
	c-14.83,23.16-20.83,80.16,39.17,99.16"/>
<path class="st0" d="M3077.69-264.13l26-79c0,0,83.12,8.35,144-59c47-52,29.83-145.16-73.17-143.16c-49.03,0.95-91.4,23.04-117,63
	c-14.83,23.16-20.83,80.16,39.17,99.16"/>
<path class="st0" d="M3348.69-398.13l26-79c0,0,83.12,8.35,144-59c47-52,29.83-145.16-73.17-143.16c-49.03,0.95-91.4,23.04-117,63
	c-14.83,23.16-20.83,80.16,39.17,99.16"/>
<path class="st0" d="M2128.08,551.84l26-79c0,0,83.12,8.35,144-59c47-52,29.83-145.16-73.17-143.16c-49.03,0.95-91.4,23.04-117,63
	c-14.83,23.16-20.83,80.16,39.17,99.16"/>
<path class="st0" d="M2391.11,404.33l26-79c0,0,83.12,8.35,144-59c47-52,29.83-145.16-73.17-143.16c-49.03,0.95-91.4,23.04-117,63
	c-14.83,23.16-20.83,80.16,39.17,99.16"/>
<path class="st0" d="M2662.11,270.33l26-79c0,0,83.12,8.35,144-59c47-52,29.83-145.16-73.17-143.16c-49.03,0.95-91.4,23.04-117,63
	c-14.83,23.16-20.83,80.16,39.17,99.16"/>
<path class="st0" d="M2236.55,780.01l26-79c0,0,83.12,8.35,144-59c47-52,29.83-145.16-73.17-143.16c-49.03,0.95-91.4,23.04-117,63
	c-14.83,23.16-20.83,80.16,39.17,99.16"/>
<path class="st0" d="M2499.58,632.5l26-79c0,0,83.12,8.35,144-59c47-52,29.83-145.16-73.17-143.16c-49.03,0.95-91.4,23.04-117,63
	c-14.83,23.16-20.83,80.16,39.17,99.16"/>
<path class="st0" d="M2770.58,498.5l26-79c0,0,83.12,8.35,144-59c47-52,29.83-145.16-73.17-143.16c-49.03,0.95-91.4,23.04-117,63
	c-14.83,23.16-20.83,80.16,39.17,99.16"/>
<path class="st0" d="M2352.55,1011.01l26-79c0,0,83.12,8.35,144-59c47-52,29.83-145.16-73.17-143.16c-49.03,0.95-91.4,23.04-117,63
	c-14.83,23.16-20.83,80.16,39.17,99.16"/>
<path class="st0" d="M2615.58,863.5l26-79c0,0,83.12,8.35,144-59c47-52,29.83-145.16-73.17-143.16c-49.03,0.95-91.4,23.04-117,63
	c-14.83,23.16-20.83,80.16,39.17,99.16"/>
<path class="st0" d="M2886.58,729.5l26-79c0,0,83.12,8.35,144-59c47-52,29.83-145.16-73.17-143.16c-49.03,0.95-91.4,23.04-117,63
	c-14.83,23.16-20.83,80.16,39.17,99.16"/>
<path class="st0" d="M2932.29,116.58l26-79c0,0,83.12,8.35,144-59c47-52,29.83-145.16-73.17-143.16c-49.03,0.95-91.4,23.04-117,63
	c-14.83,23.16-20.83,80.16,39.17,99.16"/>
<path class="st0" d="M3195.33-30.93l26-79c0,0,83.12,8.35,144-59c47-52,29.83-145.16-73.17-143.16c-49.03,0.95-91.4,23.04-117,63
	c-14.83,23.16-20.83,80.16,39.17,99.16"/>
<path class="st0" d="M3466.33-164.93l26-79c0,0,83.12,8.35,144-59c47-52,29.83-145.16-73.17-143.16c-49.03,0.95-91.4,23.04-117,63
	c-14.83,23.16-20.83,80.16,39.17,99.16"/>
<path class="st0" d="M3040.76,344.75l26-79c0,0,83.12,8.35,144-59c47-52,29.83-145.16-73.17-143.16c-49.03,0.95-91.4,23.04-117,63
	c-14.83,23.16-20.83,80.16,39.17,99.16"/>
<path class="st0" d="M3303.8,197.24l26-79c0,0,83.12,8.35,144-59c47-52,29.83-145.16-73.17-143.16c-49.03,0.95-91.4,23.04-117,63
	c-14.83,23.16-20.83,80.16,39.17,99.16"/>
<path class="st0" d="M3574.8,63.24l26-79c0,0,83.12,8.35,144-59c47-52,29.83-145.16-73.17-143.16c-49.03,0.95-91.4,23.04-117,63
	c-14.83,23.16-20.83,80.16,39.17,99.16"/>
<path class="st0" d="M3156.76,575.75l26-79c0,0,83.12,8.35,144-59c47-52,29.83-145.16-73.17-143.16c-49.03,0.95-91.4,23.04-117,63
	c-14.83,23.16-20.83,80.16,39.17,99.16"/>
<path class="st0" d="M3419.8,428.24l26-79c0,0,83.12,8.35,144-59c47-52,29.83-145.16-73.17-143.16c-49.03,0.95-91.4,23.04-117,63
	c-14.83,23.16-20.83,80.16,39.17,99.16"/>
<path class="st0" d="M3690.8,294.24l26-79c0,0,83.12,8.35,144-59c47-52,29.83-145.16-73.17-143.16c-49.03,0.95-91.4,23.04-117,63
	c-14.83,23.16-20.83,80.16,39.17,99.16"/>
</svg>
