<?xml version="1.0" standalone="no"?><!DOCTYPE svg PUBLIC "-//W3C//DTD SVG 1.1//EN" "http://www.w3.org/Graphics/SVG/1.1/DTD/svg11.dtd"><svg t="1669790219256" class="icon" viewBox="0 0 1024 1024" version="1.1" xmlns="http://www.w3.org/2000/svg" p-id="2712" xmlns:xlink="http://www.w3.org/1999/xlink" width="200" height="200"><path d="M490.666667 53.333333c-147.285333 0-266.666667 119.381333-266.666667 266.666667S343.381333 586.666667 490.666667 586.666667 757.333333 467.285333 757.333333 320 637.952 53.333333 490.666667 53.333333z m0 64a202.666667 202.666667 0 1 1 0 405.333334 202.666667 202.666667 0 0 1 0-405.333334z" fill="#666666" p-id="2713"></path><path d="M492.544 522.666667c68.992 0 135.637333 16.682667 195.328 48.149333a32 32 0 1 1-29.845333 56.618667 353.664 353.664 0 0 0-165.482667-40.768C297.066667 586.666667 138.666667 744.298667 138.666667 938.666667a32 32 0 1 1-64 0c0-229.781333 187.136-416 417.877333-416zM896 704a32 32 0 0 1 3.072 63.850667L896 768H640a32 32 0 0 1-3.072-63.850667L640 704h256zM896 896a32 32 0 0 1 3.072 63.850667L896 960H640a32 32 0 0 1-3.072-63.850667L640 896h256z" fill="#666666" p-id="2714"></path></svg>