<?xml version="1.0" encoding="utf-8"?>
<!-- Generator: Adobe Illustrator 26.3.1, SVG Export Plug-In . SVG Version: 6.00 Build 0)  -->
<svg version="1.1" xmlns="http://www.w3.org/2000/svg" xmlns:xlink="http://www.w3.org/1999/xlink" x="0px" y="0px"
	 viewBox="0 0 500 500" style="enable-background:new 0 0 500 500;" xml:space="preserve">
<style type="text/css">
	.st0{display:none;}
	.st1{display:inline;fill:none;stroke:#003B55;stroke-width:40;stroke-miterlimit:10;}
	.st2{display:inline;}
	.st3{fill:#003B55;}
	.st4{display:inline;fill:none;}
	.st5{fill:none;stroke:#FFFFFF;stroke-width:40;stroke-miterlimit:10;}
	.st6{display:inline;fill:none;stroke:#003B55;stroke-width:10;stroke-miterlimit:10;}
</style>
<g id="图层_1" class="st0">
	<path class="st1" d="M-436.55,195.8l26-79c0,0,83.12,8.35,144-59c47-52,29.83-145.16-73.17-143.16c-49.03,0.95-91.4,23.04-117,63
		C-471.55,0.8-477.55,57.8-417.55,76.8"/>
	<g class="st2">
		<path class="st3" d="M-196.04,9.37c6.73-1.53,16.23-2.45,25.27-2.45c9.94,0,21.01,2.21,27.92,8.56
			c5.93,5.21,9.08,12.64,9.08,21.67c0,13.83-6.46,25.1-14.25,31.78c-8.73,7.57-21.48,11.13-33.89,11.13c-3.76,0-7.08-0.31-9.96-0.76
			l-8.66,45.43h-17.4L-196.04,9.37z M-189.12,64.54c3.04,0.63,5.71,0.89,9.35,0.89c17.71,0,28.08-12.99,28.08-26.85
			c0-11.91-7.68-17.23-19.36-17.23c-4.38,0-7.84,0.36-10.01,0.94L-189.12,64.54z"/>
		<path class="st3" d="M-85.6,124.75c0.08-4.92,0.7-11.3,1.42-18.48h-0.43c-8.32,15.25-18.56,20.24-28.26,20.24
			c-13.76,0-22.38-11.06-22.38-27.25c0-28.01,18.4-60.69,55.63-60.69c8.27,0,17.08,1.52,22.76,3.43l-9,45.18
			c-2.41,12.49-3.79,27.89-3.52,37.57H-85.6z M-76.76,53.26c-1.88-0.53-4.36-0.89-7.61-0.89c-18.84,0-32.5,24.07-32.62,43.23
			c-0.08,9.11,2.76,16.32,11.12,16.32c9.44,0,20.34-13.21,24.15-33.32L-76.76,53.26z"/>
		<path class="st3" d="M-57.75,158.84l16.72-88.13c1.95-10.45,3.66-22.12,4.78-30.4h15.88l-1.9,14.1h0.35
			c6.77-9.9,16.65-15.85,26.8-15.85c16.82,0,23.49,14.07,23.49,29.22c0,28.78-18.73,58.72-46.24,58.72
			c-6.78,0-12.23-1.56-15.12-3.31h-0.39l-6.7,35.65H-57.75z M-30.53,108.85c2.97,2.4,7,3.9,12.18,3.9
			c16.71,0,28.27-25.5,28.27-43.25c0-7.77-2.84-16.14-12.13-16.14c-9.59,0-20.35,11.9-23.81,30.62L-30.53,108.85z"/>
		<path class="st3" d="M96.87,120.15c-7.4,3.87-17.14,6.18-27.01,6.18c-21.85,0-31.35-14.35-31.35-33.41
			c0-24.93,17.08-54.37,44.56-54.37c15.6,0,24.37,9.78,24.41,22.36c0,21.76-21.86,29-51.39,28.43c-0.37,2.95,0,9.62,1.79,13.51
			c2.92,6.14,8.57,9.33,16.17,9.33c8.79,0,15.57-2.47,20.93-5.26L96.87,120.15z M80.71,52.32C69.53,52.32,61.1,63.35,58,75.92
			c18.78,0.22,32.78-3.17,32.78-14.43C90.78,55.7,86.85,52.32,80.71,52.32z"/>
		<path class="st3" d="M135.43,9.37c7.13-1.58,16.63-2.45,25.54-2.45c10.88,0,20.82,2.32,27.27,7.76
			c5.71,4.65,9.29,11.47,9.29,20.08c0,16.99-11.82,29.72-26.37,34.18l-0.04,0.48c7.44,2.86,10.9,10.99,11.66,23.36
			c1.03,15.03,1.82,27.47,3.32,31.97h-18.19c-0.78-2.92-1.68-14.34-2.4-28.19c-0.76-15.42-5.67-21.16-16.16-21.16h-8.99l-9.32,49.35
			h-17.54L135.43,9.37z M143.05,61.74h10.03c15.38,0,25.96-11.08,25.96-24.73c0-10.31-7.25-15.96-18.64-15.96
			c-4.46,0-7.59,0.36-9.84,0.98L143.05,61.74z"/>
		<path class="st3" d="M217.99,126.31c-3.47,0-6.17-0.78-8.08-2.35c-1.91-1.56-2.87-3.85-2.87-6.86c0-1.5,0.2-3.45,0.61-5.82
			c0.4-2.37,1.19-6.11,2.35-11.21l8.86-41.36c0.35-2.09,0.52-3.88,0.52-5.39c0-1.16-0.35-2.29-1.04-3.39
			c-0.69-1.1-2.2-1.65-4.52-1.65c-1.51,0-3.48,0.12-5.91,0.35v-4.69l24.33-1.91h3.82l-13.03,61.86c-0.58,3.59-0.87,6.02-0.87,7.3
			c0,2.2,1.04,3.3,3.13,3.3c3.01,0,5.67-1.13,7.99-3.39c2.32-2.26,4.17-4.14,5.56-5.65l3.48,2.61c-1.97,2.78-4.11,5.59-6.43,8.43
			c-2.32,2.84-4.93,5.19-7.82,7.04C225.17,125.38,221.81,126.31,217.99,126.31z M230.67,28.13c-2.55,0-4.69-0.81-6.43-2.43
			c-1.74-1.62-2.61-3.94-2.61-6.95c0-3.01,0.87-5.36,2.61-7.04c1.74-1.68,4.05-2.52,6.95-2.52c2.89,0,5.13,0.87,6.69,2.61
			c1.56,1.74,2.35,4.06,2.35,6.95c0,2.9-0.93,5.19-2.78,6.86C235.6,27.29,233.34,28.13,230.67,28.13z"/>
		<path class="st3" d="M274.98,126.66c-5.45,0-9.82-0.67-13.12-2s-5.59-2.23-6.86-2.69h-0.52l-4.17,4.69h-3.82L251,97.64h4.34
			c0.93,7.53,2.69,13.27,5.3,17.2c2.61,3.94,6.86,5.91,12.77,5.91c4.05,0,7.33-0.98,9.82-2.95c2.49-1.97,3.74-5.21,3.74-9.73
			c0-4.75-1.3-8.78-3.91-12.08s-5.59-6.52-8.95-9.64c-2.32-2.32-4.67-4.58-7.04-6.78c-2.38-2.2-4.34-4.66-5.91-7.39
			c-1.56-2.72-2.35-5.88-2.35-9.47c0-5.91,1.97-10.92,5.91-15.03c3.94-4.11,9.85-6.17,17.72-6.17c4.63,0,8.49,0.64,11.56,1.91
			c3.07,1.28,5.13,2.2,6.17,2.78h0.52l4.52-4.69h3.3l-4,27.11h-4.17c-0.23-6.72-1.77-12.05-4.6-15.99
			c-2.84-3.94-6.81-5.91-11.9-5.91c-4.52,0-7.76,1.22-9.73,3.65c-1.97,2.43-2.95,4.93-2.95,7.47c0,2.43,0.84,4.78,2.52,7.04
			c1.68,2.26,3.79,4.58,6.34,6.95c2.55,2.38,5.1,4.95,7.65,7.73c3.71,3.94,6.92,7.79,9.64,11.56c2.72,3.77,4.08,8.43,4.08,13.99
			c0,3.36-0.84,6.69-2.52,9.99c-1.68,3.3-4.43,6.06-8.25,8.25C286.8,125.56,281.59,126.66,274.98,126.66z"/>
		<path class="st3" d="M330.24,126.31c-3.59,0-6.25-0.87-7.99-2.61c-1.74-1.74-2.61-3.94-2.61-6.6c0-1.5,0.17-3.33,0.52-5.47
			c0.35-2.14,0.58-3.62,0.7-4.43l11.82-56.82h-9.91l0.7-3.65c3.71-1.97,6.8-3.88,9.3-5.73c2.49-1.85,4.87-4.28,7.12-7.3
			c2.26-3.01,4.84-7.01,7.73-11.99h5.21l-16.51,80.46c-0.81,4.29-1.22,7.18-1.22,8.69c0,0.93,0.2,1.77,0.61,2.52
			c0.4,0.75,1.19,1.13,2.35,1.13c2.55,0,4.89-0.75,7.04-2.26c2.14-1.5,4.72-4.23,7.73-8.17l3.48,2.61c-1.62,2.2-3.59,4.87-5.91,7.99
			c-2.32,3.13-5.1,5.85-8.34,8.17C338.81,125.15,334.87,126.31,330.24,126.31z M364.13,50.37h-19.29l1.39-6.78h19.29L364.13,50.37z"
			/>
	</g>
</g>
<g id="图层_2" class="st0">
	<path class="st1" d="M100.69,384.75l26-79c0,0,83.12,8.35,144-59c47-52,29.83-145.16-73.17-143.16c-49.03,0.95-91.4,23.04-117,63
		c-14.83,23.16-20.83,80.16,39.17,99.16"/>
	<rect x="180.44" y="348.02" class="st4" width="262.35" height="0"/>
	<g class="st2">
		<path class="st3" d="M193.9,331.26c2.79-0.63,6.73-1.02,10.47-1.02c4.12,0,8.71,0.91,11.57,3.55c2.46,2.16,3.76,5.24,3.76,8.98
			c0,5.73-2.68,10.4-5.9,13.17c-3.62,3.14-8.9,4.61-14.04,4.61c-1.56,0-2.93-0.13-4.13-0.31l-3.59,18.83h-7.21L193.9,331.26z
			 M196.77,354.12c1.26,0.26,2.36,0.37,3.87,0.37c7.34,0,11.64-5.38,11.64-11.13c0-4.93-3.18-7.14-8.02-7.14
			c-1.81,0-3.25,0.15-4.15,0.39L196.77,354.12z"/>
		<path class="st3" d="M239.66,379.07c0.03-2.04,0.29-4.68,0.59-7.66h-0.18c-3.45,6.32-7.69,8.39-11.71,8.39
			c-5.7,0-9.27-4.58-9.27-11.29c0-11.61,7.62-25.15,23.05-25.15c3.42,0,7.08,0.63,9.43,1.42l-3.73,18.72
			c-1,5.17-1.57,11.56-1.46,15.57H239.66z M243.33,349.44c-0.78-0.22-1.81-0.37-3.16-0.37c-7.81,0-13.47,9.97-13.52,17.91
			c-0.04,3.77,1.14,6.76,4.61,6.76c3.91,0,8.43-5.47,10.01-13.81L243.33,349.44z"/>
		<path class="st3" d="M251.2,393.19l6.93-36.52c0.81-4.33,1.51-9.17,1.98-12.6h6.58l-0.79,5.84h0.14c2.81-4.1,6.9-6.57,11.11-6.57
			c6.97,0,9.73,5.83,9.73,12.11c0,11.93-7.76,24.33-19.16,24.33c-2.81,0-5.07-0.65-6.27-1.37h-0.16l-2.78,14.77H251.2z
			 M262.48,372.48c1.23,0.99,2.9,1.61,5.05,1.61c6.92,0,11.71-10.57,11.71-17.92c0-3.22-1.17-6.69-5.03-6.69
			c-3.97,0-8.43,4.93-9.87,12.69L262.48,372.48z"/>
		<path class="st3" d="M315.27,377.16c-3.07,1.61-7.1,2.56-11.19,2.56c-9.05,0-12.99-5.95-12.99-13.84
			c0-10.33,7.08-22.53,18.47-22.53c6.47,0,10.1,4.05,10.11,9.27c0,9.02-9.06,12.02-21.29,11.78c-0.15,1.22,0,3.99,0.74,5.6
			c1.21,2.54,3.55,3.87,6.7,3.87c3.64,0,6.45-1.02,8.67-2.18L315.27,377.16z M308.57,349.05c-4.63,0-8.12,4.57-9.41,9.78
			c7.78,0.09,13.58-1.31,13.58-5.98C312.74,350.45,311.12,349.05,308.57,349.05z"/>
		<path class="st3" d="M331.24,331.26c2.96-0.65,6.89-1.02,10.58-1.02c4.51,0,8.63,0.96,11.3,3.22c2.37,1.93,3.85,4.75,3.85,8.32
			c0,7.04-4.9,12.31-10.93,14.16l-0.02,0.2c3.08,1.19,4.52,4.56,4.83,9.68c0.43,6.23,0.76,11.38,1.37,13.25h-7.54
			c-0.32-1.21-0.7-5.94-0.99-11.68c-0.32-6.39-2.35-8.77-6.7-8.77h-3.72l-3.86,20.45h-7.27L331.24,331.26z M334.4,352.96h4.16
			c6.37,0,10.76-4.59,10.76-10.25c0-4.27-3-6.61-7.72-6.61c-1.85,0-3.15,0.15-4.08,0.41L334.4,352.96z"/>
		<path class="st3" d="M365.45,379.71c-1.44,0-2.56-0.32-3.35-0.97c-0.79-0.65-1.19-1.59-1.19-2.84c0-0.62,0.08-1.43,0.25-2.41
			c0.17-0.98,0.49-2.53,0.97-4.64l3.67-17.14c0.14-0.86,0.22-1.61,0.22-2.23c0-0.48-0.14-0.95-0.43-1.4
			c-0.29-0.46-0.91-0.68-1.87-0.68c-0.62,0-1.44,0.05-2.45,0.14v-1.94l10.08-0.79h1.58l-5.4,25.63c-0.24,1.49-0.36,2.5-0.36,3.02
			c0,0.91,0.43,1.37,1.3,1.37c1.25,0,2.35-0.47,3.31-1.4c0.96-0.94,1.73-1.71,2.3-2.34l1.44,1.08c-0.82,1.15-1.71,2.32-2.66,3.49
			c-0.96,1.18-2.04,2.15-3.24,2.92C368.42,379.33,367.03,379.71,365.45,379.71z M370.7,339.03c-1.06,0-1.94-0.33-2.66-1.01
			c-0.72-0.67-1.08-1.63-1.08-2.88c0-1.25,0.36-2.22,1.08-2.92c0.72-0.7,1.68-1.04,2.88-1.04c1.2,0,2.12,0.36,2.77,1.08
			c0.65,0.72,0.97,1.68,0.97,2.88c0,1.2-0.38,2.15-1.15,2.84C372.74,338.69,371.81,339.03,370.7,339.03z"/>
		<path class="st3" d="M389.06,379.86c-2.26,0-4.07-0.28-5.44-0.83c-1.37-0.55-2.32-0.92-2.84-1.12h-0.22l-1.73,1.94h-1.58
			l1.87-12.02h1.8c0.38,3.12,1.12,5.5,2.2,7.13s2.84,2.45,5.29,2.45c1.68,0,3.04-0.41,4.07-1.22c1.03-0.82,1.55-2.16,1.55-4.03
			c0-1.97-0.54-3.64-1.62-5s-2.32-2.7-3.71-4c-0.96-0.96-1.93-1.9-2.92-2.81c-0.98-0.91-1.8-1.93-2.45-3.06
			c-0.65-1.13-0.97-2.44-0.97-3.92c0-2.45,0.82-4.52,2.45-6.23c1.63-1.7,4.08-2.56,7.34-2.56c1.92,0,3.52,0.26,4.79,0.79
			c1.27,0.53,2.12,0.91,2.56,1.15h0.22l1.87-1.94h1.37l-1.66,11.23h-1.73c-0.1-2.78-0.73-4.99-1.91-6.62
			c-1.18-1.63-2.82-2.45-4.93-2.45c-1.87,0-3.22,0.5-4.03,1.51c-0.82,1.01-1.22,2.04-1.22,3.1c0,1.01,0.35,1.98,1.04,2.92
			c0.7,0.94,1.57,1.9,2.63,2.88c1.05,0.98,2.11,2.05,3.17,3.2c1.54,1.63,2.87,3.23,4,4.79s1.69,3.49,1.69,5.8
			c0,1.39-0.35,2.77-1.04,4.14c-0.7,1.37-1.84,2.51-3.42,3.42S391.8,379.86,389.06,379.86z"/>
		<path class="st3" d="M411.96,379.71c-1.49,0-2.59-0.36-3.31-1.08c-0.72-0.72-1.08-1.63-1.08-2.74c0-0.62,0.07-1.38,0.22-2.27
			c0.14-0.89,0.24-1.5,0.29-1.84l4.9-23.54h-4.1l0.29-1.51c1.54-0.82,2.82-1.61,3.85-2.38c1.03-0.77,2.02-1.78,2.95-3.02
			c0.94-1.25,2-2.9,3.2-4.97h2.16l-6.84,33.34c-0.34,1.78-0.5,2.98-0.5,3.6c0,0.38,0.08,0.73,0.25,1.04
			c0.17,0.31,0.49,0.47,0.97,0.47c1.06,0,2.03-0.31,2.92-0.94c0.89-0.62,1.96-1.75,3.2-3.38l1.44,1.08
			c-0.67,0.91-1.49,2.02-2.45,3.31c-0.96,1.3-2.11,2.42-3.46,3.38S413.88,379.71,411.96,379.71z M426,348.25h-7.99l0.58-2.81h7.99
			L426,348.25z"/>
	</g>
</g>
<g id="图层_3">
	<path class="st3" d="M361.39,456.5H138.61C85.81,456.5,43,413.69,43,360.89V138.11c0-52.81,42.81-95.61,95.61-95.61h222.77
		c52.81,0,95.61,42.81,95.61,95.61v222.77C457,413.69,414.19,456.5,361.39,456.5z"/>
	<path class="st5" d="M166.52,403.48l26-79c0,0,83.12,8.35,144-59c47-52,29.83-145.16-73.17-143.16c-49.03,0.95-91.4,23.04-117,63
		c-14.83,23.16-20.83,80.16,39.17,99.16"/>
</g>
<g id="图层_4" class="st0">
	<path class="st6" d="M361.39,464.5H138.61C85.81,464.5,43,421.69,43,368.89V146.11c0-52.81,42.81-95.61,95.61-95.61h222.77
		c52.81,0,95.61,42.81,95.61,95.61v222.77C457,421.69,414.19,464.5,361.39,464.5z"/>
	<path class="st1" d="M166.52,411.48l26-79c0,0,83.12,8.35,144-59c47-52,29.83-145.16-73.17-143.16c-49.03,0.95-91.4,23.04-117,63
		c-14.83,23.16-20.83,80.16,39.17,99.16"/>
</g>
</svg>
