<?xml version="1.0" encoding="utf-8"?>
<!-- Generator: Adobe Illustrator 26.3.1, SVG Export Plug-In . SVG Version: 6.00 Build 0)  -->
<svg version="1.1" id="图层_1" xmlns="http://www.w3.org/2000/svg" xmlns:xlink="http://www.w3.org/1999/xlink" x="0px" y="0px"
	 viewBox="0 0 708.7 708.7" style="enable-background:new 0 0 708.7 708.7;" xml:space="preserve">
<style type="text/css">
	.st0{display:none;}
	.st1{display:inline;opacity:0.27;fill:none;stroke:#003B55;stroke-width:40;stroke-miterlimit:10;enable-background:new    ;}
	.st2{fill:#003B55;}
	.st3{fill:#FFFFFF;}
	.st4{fill:#FFFFFF;stroke:#FFFFFF;stroke-miterlimit:10;}
</style>
<g id="图层_2_00000081614852343316006630000002261520102280522373_" class="st0">
	<path class="st1" d="M-1314.5,1200.5l26-79c0,0,83.1,8.3,144-59c47-52,29.8-145.2-73.2-143.2c-49,1-91.4,23-117,63
		c-14.8,23.2-20.8,80.2,39.2,99.2"/>
	<path class="st1" d="M-1051.5,1053l26-79c0,0,83.1,8.3,144-59c47-52,29.8-145.2-73.2-143.2c-49,1-91.4,23-117,63
		c-14.8,23.2-20.8,80.2,39.2,99.2"/>
	<path class="st1" d="M-780.5,919l26-79c0,0,83.1,8.3,144-59c47-52,29.8-145.2-73.2-143.2c-49,1-91.4,23-117,63
		c-14.8,23.2-20.8,80.2,39.2,99.2"/>
	<path class="st1" d="M-1206.1,1428.6l26-79c0,0,83.1,8.3,144-59c47-52,29.8-145.2-73.2-143.2c-49,0.9-91.4,23-117,63
		c-14.8,23.2-20.8,80.2,39.2,99.2"/>
	<path class="st1" d="M-943,1281.1l26-79c0,0,83.1,8.3,144-59c47-52,29.8-145.2-73.2-143.2c-49,0.9-91.4,23-117,63
		c-14.8,23.2-20.8,80.2,39.2,99.2"/>
	<path class="st1" d="M-672,1147.1l26-79c0,0,83.1,8.3,144-59c47-52,29.8-145.2-73.2-143.2c-49,1-91.4,23-117,63
		c-14.8,23.2-20.8,80.2,39.2,99.2"/>
	<path class="st1" d="M-1090.1,1659.6l26-79c0,0,83.1,8.3,144-59c47-52,29.8-145.2-73.2-143.2c-49,0.9-91.4,23-117,63
		c-14.8,23.2-20.8,80.2,39.2,99.2"/>
	<path class="st1" d="M-827,1512.1l26-79c0,0,83.1,8.3,144-59c47-52,29.8-145.2-73.2-143.2c-49,0.9-91.4,23-117,63
		c-14.8,23.2-20.8,80.2,39.2,99.2"/>
	<path class="st1" d="M-556,1378.1l26-79c0,0,83.1,8.3,144-59c47-52,29.8-145.2-73.2-143.2c-49,0.9-91.4,23-117,63
		c-14.8,23.2-20.8,80.2,39.2,99.2"/>
	<path class="st1" d="M-510.3,765.2l26-79c0,0,83.1,8.3,144-59c47-52,29.8-145.2-73.2-143.2c-49,1-91.4,23-117,63
		c-14.8,23.2-20.8,80.2,39.2,99.2"/>
	<path class="st1" d="M-247.3,617.7l26-79c0,0,83.1,8.3,144-59c47-52,29.8-145.2-73.2-143.2c-49,1-91.4,23-117,63
		c-14.8,23.2-20.8,80.2,39.2,99.2"/>
	<path class="st1" d="M23.7,483.7l26-79c0,0,83.1,8.4,144-59c47-52,29.8-145.2-73.2-143.2c-49,0.9-91.4,23-117,63
		c-14.8,23.2-20.8,80.2,39.2,99.2"/>
	<path class="st1" d="M-401.9,993.4l26-79c0,0,83.1,8.3,144-59c47-52,29.8-145.2-73.2-143.2c-49,1-91.4,23-117,63
		c-14.8,23.2-20.8,80.2,39.2,99.2"/>
	<path class="st1" d="M-138.8,845.9l26-79c0,0,83.1,8.3,144-59c47-52,29.8-145.2-73.2-143.2c-49,1-91.4,23-117,63
		c-14.8,23.2-20.8,80.2,39.2,99.2"/>
	<path class="st1" d="M132.2,711.9l26-79c0,0,83.1,8.3,144-59c47-52,29.8-145.2-73.2-143.2c-49,1-91.4,23-117,63
		c-14.8,23.2-20.8,80.2,39.2,99.2"/>
	<path class="st1" d="M-285.9,1224.4l26-79c0,0,83.1,8.3,144-59c47-52,29.8-145.2-73.2-143.2c-49,1-91.4,23-117,63
		c-14.8,23.2-20.8,80.2,39.2,99.2"/>
	<path class="st1" d="M-22.8,1076.9l26-79c0,0,83.1,8.3,144-59c47-52,29.8-145.2-73.2-143.2c-49,1-91.4,23-117,63
		c-14.8,23.2-20.8,80.2,39.2,99.2"/>
	<path class="st1" d="M248.2,942.9l26-79c0,0,83.1,8.3,144-59c47-52,29.8-145.2-73.2-143.2c-49,1-91.4,23-117,63
		c-14.8,23.2-20.8,80.2,39.2,99.2"/>
	<path class="st1" d="M-972.4,1892.8l26-79c0,0,83.1,8.3,144-59c47-52,29.8-145.2-73.2-143.2c-49,0.9-91.4,23-117,63
		c-14.8,23.2-20.8,80.2,39.2,99.2"/>
	<path class="st1" d="M-709.4,1745.3l26-79c0,0,83.1,8.3,144-59c47-52,29.8-145.2-73.2-143.2c-49,0.9-91.4,23-117,63
		c-14.8,23.2-20.8,80.2,39.2,99.2"/>
	<path class="st1" d="M-438.4,1611.3l26-79c0,0,83.1,8.3,144-59c47-52,29.8-145.2-73.2-143.2c-49,0.9-91.4,23-117,63
		c-14.8,23.2-20.8,80.2,39.2,99.2"/>
	<path class="st1" d="M-864,2121l26-79c0,0,83.1,8.4,144-59c47-52,29.8-145.2-73.2-143.2c-49,0.9-91.4,23-117,63
		C-899,1926-905,1983-845,2002"/>
	<path class="st1" d="M-600.9,1973.5l26-79c0,0,83.1,8.3,144-59c47-52,29.8-145.2-73.2-143.2c-49,0.9-91.4,23-117,63
		c-14.8,23.2-20.8,80.2,39.2,99.2"/>
	<path class="st1" d="M-329.9,1839.5l26-79c0,0,83.1,8.3,144-59c47-52,29.8-145.2-73.2-143.2c-49,0.9-91.4,23-117,63
		c-14.8,23.2-20.8,80.2,39.2,99.2"/>
	<path class="st1" d="M-748,2352l26-79c0,0,83.1,8.4,144-59c47-52,29.8-145.2-73.2-143.2c-49,0.9-91.4,23-117,63
		C-783,2157-789,2214-729,2233"/>
	<path class="st1" d="M-484.9,2204.5l26-79c0,0,83.1,8.4,144-59c47-52,29.8-145.2-73.2-143.2c-49,0.9-91.4,23-117,63
		c-14.8,23.2-20.8,80.2,39.2,99.2"/>
	<path class="st1" d="M-213.9,2070.5l26-79c0,0,83.1,8.3,144-59c47-52,29.8-145.2-73.2-143.2c-49,0.9-91.4,23-117,63
		c-14.8,23.2-20.8,80.2,39.2,99.2"/>
	<path class="st1" d="M-168.2,1457.6l26-79c0,0,83.1,8.3,144-59c47-52,29.8-145.2-73.2-143.2c-49,0.9-91.4,23-117,63
		c-14.8,23.2-20.8,80.2,39.2,99.2"/>
	<path class="st1" d="M94.8,1310.1l26-79c0,0,83.1,8.3,144-59c47-52,29.8-145.2-73.2-143.2c-49,0.9-91.4,23-117,63
		c-14.8,23.2-20.8,80.2,39.2,99.2"/>
	<path class="st1" d="M365.8,1176.1l26-79c0,0,83.1,8.3,144-59c47-52,29.8-145.2-73.2-143.2c-49,1-91.4,23-117,63
		c-14.8,23.2-20.8,80.2,39.2,99.2"/>
	<path class="st1" d="M-59.7,1685.7l26-79c0,0,83.1,8.3,144-59c47-52,29.8-145.2-73.2-143.2c-49,0.9-91.4,23-117,63
		c-14.8,23.2-20.8,80.2,39.2,99.2"/>
	<path class="st1" d="M203.3,1538.2l26-79c0,0,83.1,8.3,144-59c47-52,29.8-145.2-73.2-143.2c-49,0.9-91.4,23-117,63
		c-14.8,23.2-20.8,80.2,39.2,99.2"/>
	<path class="st1" d="M474.3,1404.2l26-79c0,0,83.1,8.3,144-59c47-52,29.8-145.2-73.2-143.2c-49,0.9-91.4,23-117,63
		c-14.8,23.2-20.8,80.2,39.2,99.2"/>
	<path class="st1" d="M56.3,1916.7l26-79c0,0,83.1,8.3,144-59c47-52,29.8-145.2-73.2-143.2c-49,0.9-91.4,23-117,63
		c-14.8,23.2-20.8,80.2,39.2,99.2"/>
	<path class="st1" d="M319.3,1769.2l26-79c0,0,83.1,8.3,144-59c47-52,29.8-145.2-73.2-143.2c-49,0.9-91.4,23-117,63
		c-14.8,23.2-20.8,80.2,39.2,99.2"/>
	<path class="st1" d="M590.3,1635.2l26-79c0,0,83.1,8.3,144-59c47-52,29.8-145.2-73.2-143.2c-49,0.9-91.4,23-117,63
		c-14.8,23.2-20.8,80.2,39.2,99.2"/>
	<path class="st1" d="M285.9,337.6l26-79c0,0,83.1,8.4,144-59c47-52,29.8-145.2-73.2-143.2c-49,0.9-91.4,23-117,63
		c-14.8,23.2-20.8,80.2,39.2,99.2"/>
	<path class="st1" d="M548.9,190.1l26-79c0,0,83.1,8.4,144-59c47-52,29.8-145.2-73.2-143.2c-49,1-91.4,23-117,63
		c-14.8,23.2-20.8,80.2,39.2,99.2"/>
	<path class="st1" d="M819.9,56.1l26-79c0,0,83.1,8.3,144-59c47-52,29.8-145.2-73.2-143.2c-49,0.9-91.4,23-117,63
		c-14.8,23.2-20.8,80.2,39.2,99.2"/>
	<path class="st1" d="M394.4,565.8l26-79c0,0,83.1,8.3,144-59c47-52,29.8-145.2-73.2-143.2c-49,1-91.4,23-117,63
		c-14.8,23.2-20.8,80.2,39.2,99.2"/>
	<path class="st1" d="M657.4,418.3l26-79c0,0,83.1,8.4,144-59c47-52,29.8-145.2-73.2-143.2c-49,0.9-91.4,23-117,63
		c-14.8,23.2-20.8,80.2,39.2,99.2"/>
	<path class="st1" d="M928.4,284.3l26-79c0,0,83.1,8.4,144-59c47-52,29.8-145.2-73.2-143.2c-49,1-91.4,23-117,63
		c-14.8,23.2-20.8,80.2,39.2,99.2"/>
	<path class="st1" d="M510.4,796.8l26-79c0,0,83.1,8.3,144-59c47-52,29.8-145.2-73.2-143.2c-49,1-91.4,23-117,63
		c-14.8,23.2-20.8,80.2,39.2,99.2"/>
	<path class="st1" d="M773.4,649.3l26-79c0,0,83.1,8.3,144-59c47-52,29.8-145.2-73.2-143.2c-49,1-91.4,23-117,63
		c-14.8,23.2-20.8,80.2,39.2,99.2"/>
	<path class="st1" d="M1044.4,515.3l26-79c0,0,83.1,8.4,144-59c47-52,29.8-145.2-73.2-143.2c-49,1-91.4,23-117,63
		c-14.8,23.2-20.8,80.2,39.2,99.2"/>
	<path class="st1" d="M1090.1-97.7l26-79c0,0,83.1,8.4,144-59c47-52,29.8-145.2-73.2-143.2c-49,1-91.4,23-117,63
		c-14.8,23.2-20.8,80.2,39.2,99.2"/>
	<path class="st1" d="M1353.2-245.2l26-79c0,0,83.1,8.4,144-59c47-52,29.8-145.2-73.2-143.2c-49,1-91.4,23-117,63
		c-14.8,23.2-20.8,80.2,39.2,99.2"/>
	<path class="st1" d="M1624.2-379.2l26-79c0,0,83.1,8.4,144-59c47-52,29.8-145.2-73.2-143.2c-49,1-91.4,23-117,63
		c-14.8,23.2-20.8,80.2,39.2,99.2"/>
	<path class="st1" d="M1198.6,130.5l26-79c0,0,83.1,8.3,144-59c47-52,29.8-145.2-73.2-143.2c-49,0.9-91.4,23-117,63
		c-14.8,23.2-20.8,80.2,39.2,99.2"/>
	<path class="st1" d="M1461.6-17l26-79c0,0,83.1,8.3,144-59c47-52,29.8-145.2-73.2-143.2c-49,1-91.4,23-117,63
		c-14.8,23.2-20.8,80.2,39.2,99.2"/>
	<path class="st1" d="M1732.6-151l26-79c0,0,83.1,8.4,144-59c47-52,29.8-145.2-73.2-143.2c-49,1-91.4,23-117,63
		c-14.8,23.2-20.8,80.2,39.2,99.2"/>
	<path class="st1" d="M1314.6,361.5l26-79c0,0,83.1,8.4,144-59c47-52,29.8-145.2-73.2-143.2c-49,0.9-91.4,23-117,63
		c-14.8,23.2-20.8,80.2,39.2,99.2"/>
	<path class="st1" d="M1577.6,214l26-79c0,0,83.1,8.4,144-59c47-52,29.8-145.2-73.2-143.2c-49,1-91.4,23-117,63
		C1542.6,19,1536.6,76,1596.6,95"/>
	<path class="st1" d="M1848.6,80l26-79c0,0,83.1,8.3,144-59c47-52,29.8-145.2-73.2-143.2c-49,0.9-91.4,23-117,63
		c-14.8,23.2-20.8,80.2,39.2,99.2"/>
	<path class="st1" d="M628,1030l26-79c0,0,83.1,8.3,144-59c47-52,29.8-145.2-73.2-143.2c-49,1-91.4,23-117,63
		C593,835,587,892,647,911"/>
	<path class="st1" d="M891,882.5l26-79c0,0,83.1,8.3,144-59c47-52,29.8-145.2-73.2-143.2c-49,1-91.4,23-117,63
		C856,687.5,850,744.5,910,763.5"/>
	<path class="st1" d="M1162,748.5l26-79c0,0,83.1,8.3,144-59c47-52,29.8-145.2-73.2-143.2c-49,1-91.4,23-117,63
		c-14.8,23.2-20.8,80.2,39.2,99.2"/>
	<path class="st1" d="M736.5,1258.1l26-79c0,0,83.1,8.3,144-59c47-52,29.8-145.2-73.2-143.2c-49,1-91.4,23-117,63
		c-14.8,23.2-20.8,80.2,39.2,99.2"/>
	<path class="st1" d="M999.5,1110.6l26-79c0,0,83.1,8.3,144-59c47-52,29.8-145.2-73.2-143.2c-49,1-91.4,23-117,63
		c-14.8,23.2-20.8,80.2,39.2,99.2"/>
	<path class="st1" d="M1270.5,976.6l26-79c0,0,83.1,8.3,144-59c47-52,29.8-145.2-73.2-143.2c-49,1-91.4,23-117,63
		c-14.8,23.2-20.8,80.2,39.2,99.2"/>
	<path class="st1" d="M852.5,1489.1l26-79c0,0,83.1,8.3,144-59c47-52,29.8-145.2-73.2-143.2c-49,0.9-91.4,23-117,63
		c-14.8,23.2-20.8,80.2,39.2,99.2"/>
	<path class="st1" d="M1115.5,1341.6l26-79c0,0,83.1,8.3,144-59c47-52,29.8-145.2-73.2-143.2c-49,0.9-91.4,23-117,63
		c-14.8,23.2-20.8,80.2,39.2,99.2"/>
	<path class="st1" d="M1386.5,1207.6l26-79c0,0,83.1,8.3,144-59c47-52,29.8-145.2-73.2-143.2c-49,1-91.4,23-117,63
		c-14.8,23.2-20.8,80.2,39.2,99.2"/>
	<path class="st1" d="M1432.2,594.7l26-79c0,0,83.1,8.3,144-59c47-52,29.8-145.2-73.2-143.2c-49,1-91.4,23-117,63
		c-14.8,23.2-20.8,80.2,39.2,99.2"/>
	<path class="st1" d="M1695.3,447.2l26-79c0,0,83.1,8.4,144-59c47-52,29.8-145.2-73.2-143.2c-49,0.9-91.4,23-117,63
		c-14.8,23.2-20.8,80.2,39.2,99.2"/>
	<path class="st1" d="M1966.3,313.2l26-79c0,0,83.1,8.4,144-59c47-52,29.8-145.2-73.2-143.2c-49,0.9-91.4,23-117,63
		c-14.8,23.2-20.8,80.2,39.2,99.2"/>
	<path class="st1" d="M1540.7,822.9l26-79c0,0,83.1,8.3,144-59c47-52,29.8-145.2-73.2-143.2c-49,1-91.4,23-117,63
		c-14.8,23.2-20.8,80.2,39.2,99.2"/>
	<path class="st1" d="M1803.7,675.4l26-79c0,0,83.1,8.3,144-59c47-52,29.8-145.2-73.2-143.2c-49,1-91.4,23-117,63
		c-14.8,23.2-20.8,80.2,39.2,99.2"/>
	<path class="st1" d="M2074.7,541.4l26-79c0,0,83.1,8.4,144-59c47-52,29.8-145.2-73.2-143.2c-49,1-91.4,23-117,63
		c-14.8,23.2-20.8,80.2,39.2,99.2"/>
	<path class="st1" d="M1656.7,1053.9l26-79c0,0,83.1,8.3,144-59c47-52,29.8-145.2-73.2-143.2c-49,1-91.4,23-117,63
		c-14.8,23.2-20.8,80.2,39.2,99.2"/>
	<path class="st1" d="M1919.7,906.4l26-79c0,0,83.1,8.3,144-59c47-52,29.8-145.2-73.2-143.2c-49,1-91.4,23-117,63
		c-14.8,23.2-20.8,80.2,39.2,99.2"/>
	<path class="st1" d="M2190.7,772.4l26-79c0,0,83.1,8.3,144-59c47-52,29.8-145.2-73.2-143.2c-49,1-91.4,23-117,63
		c-14.8,23.2-20.8,80.2,39.2,99.2"/>
</g>
<circle class="st2" cx="359.8" cy="338.3" r="541.4"/>
<circle class="st3" cx="359.8" cy="338.3" r="171.1"/>
<path class="st4" d="M458.1,92.2l-27,21c-5.5,4.3-4.5,12.9,1.8,15.8l27,12.5c6.2,2.9,13.3-1.7,13.3-8.5V99.6
	C473.1,91.8,464.2,87.5,458.1,92.2z"/>
<path class="st4" d="M247.8,98.6l-4.5,33.9c-0.9,6.9,5.8,12.4,12.4,10l28-10c6.4-2.3,8.3-10.5,3.5-15.3l-23.5-23.9
	C258.3,87.7,248.9,90.9,247.8,98.6z"/>
<path class="st4" d="M605.6,232.2l-34.1-3.1c-7-0.6-12.1,6.3-9.5,12.8l11.1,27.6c2.5,6.3,10.8,7.9,15.5,2.9l23-24.5
	C616.9,242.3,613.4,232.9,605.6,232.2z"/>
<path class="st4" d="M610.2,433.4l-23.4-25c-4.8-5.1-13.2-3.4-15.6,3.2l-10,28c-2.3,6.4,2.8,13.1,9.6,12.5l33.4-3
	C612,448.4,615.5,439.1,610.2,433.4z"/>
<path class="st4" d="M472.2,576.8l0.4-34.2c0.1-7-7.2-11.6-13.5-8.5l-26.6,13.2c-6.1,3-7,11.4-1.7,15.6l26.2,21
	C463.1,588.9,472.1,584.6,472.2,576.8z"/>
<path class="st4" d="M235,573.3l27.7-20.1c5.6-4.1,5-12.7-1.3-15.9l-26.5-13.4c-6.1-3.1-13.3,1.2-13.5,8l-1.1,33.5
	C219.9,573.2,228.7,577.9,235,573.3z"/>
<path class="st4" d="M114.9,441.4L149,444c7,0.5,12-6.5,9.3-12.9l-11.5-27.4c-2.6-6.3-10.9-7.7-15.5-2.7l-22.6,24.8
	C103.5,431.6,107.1,440.8,114.9,441.4z"/>
<path class="st4" d="M122,223.6l18.5,28.8c3.8,5.9,12.4,5.7,15.9-0.4l14.9-25.7c3.4-5.9-0.4-13.4-7.2-14l-33.4-3
	C122.9,208.6,117.8,217.1,122,223.6z"/>
</svg>
