<?xml version="1.0" encoding="utf-8"?>
<!-- Generator: Adobe Illustrator 26.3.1, SVG Export Plug-In . SVG Version: 6.00 Build 0)  -->
<svg version="1.1" id="图层_1" xmlns="http://www.w3.org/2000/svg" xmlns:xlink="http://www.w3.org/1999/xlink" x="0px" y="0px"
	 viewBox="0 0 625.4 923.4" style="enable-background:new 0 0 625.4 923.4;" xml:space="preserve">
<style type="text/css">
	.st0{display:none;}
	.st1{display:inline;opacity:0.27;fill:none;stroke:#003B55;stroke-width:40;stroke-miterlimit:10;enable-background:new    ;}
	.st2{stroke:#000000;stroke-width:20;stroke-miterlimit:10;}
</style>
<g id="图层_2_00000081614852343316006630000002261520102280522373_" class="st0">
	<path class="st1" d="M-1356.1,1497.6l26-79c0,0,83.1,8.3,144-59c47-52,29.8-145.2-73.2-143.2c-49,1-91.4,23-117,63
		c-14.8,23.2-20.8,80.2,39.2,99.2"/>
	<path class="st1" d="M-1093.1,1350.1l26-79c0,0,83.1,8.3,144-59c47-52,29.8-145.2-73.2-143.2c-49,1-91.4,23-117,63
		c-14.8,23.2-20.8,80.2,39.2,99.2"/>
	<path class="st1" d="M-822.1,1216.1l26-79c0,0,83.1,8.3,144-59c47-52,29.8-145.2-73.2-143.2c-49,1-91.4,23-117,63
		c-14.8,23.2-20.8,80.2,39.2,99.2"/>
	<path class="st1" d="M-1247.7,1725.7l26-79c0,0,83.1,8.3,144-59c47-52,29.8-145.2-73.2-143.2c-49,0.9-91.4,23-117,63
		c-14.8,23.2-20.8,80.2,39.2,99.2"/>
	<path class="st1" d="M-984.6,1578.2l26-79c0,0,83.1,8.3,144-59c47-52,29.8-145.2-73.2-143.2c-49,0.9-91.4,23-117,63
		c-14.8,23.2-20.8,80.2,39.2,99.2"/>
	<path class="st1" d="M-713.6,1444.2l26-79c0,0,83.1,8.3,144-59c47-52,29.8-145.2-73.2-143.2c-49,1-91.4,23-117,63
		c-14.8,23.2-20.8,80.2,39.2,99.2"/>
	<path class="st1" d="M-1131.7,1956.7l26-79c0,0,83.1,8.3,144-59c47-52,29.8-145.2-73.2-143.2c-49,0.9-91.4,23-117,63
		c-14.8,23.2-20.8,80.2,39.2,99.2"/>
	<path class="st1" d="M-868.6,1809.2l26-79c0,0,83.1,8.3,144-59c47-52,29.8-145.2-73.2-143.2c-49,0.9-91.4,23-117,63
		c-14.8,23.2-20.8,80.2,39.2,99.2"/>
	<path class="st1" d="M-597.6,1675.2l26-79c0,0,83.1,8.3,144-59c47-52,29.8-145.2-73.2-143.2c-49,0.9-91.4,23-117,63
		c-14.8,23.2-20.8,80.2,39.2,99.2"/>
	<path class="st1" d="M-551.9,1062.3l26-79c0,0,83.1,8.3,144-59c47-52,29.8-145.2-73.2-143.2c-49,1-91.4,23-117,63
		c-14.8,23.2-20.8,80.2,39.2,99.2"/>
	<path class="st1" d="M-288.9,914.8l26-79c0,0,83.1,8.3,144-59c47-52,29.8-145.2-73.2-143.2c-49,1-91.4,23-117,63
		c-14.8,23.2-20.8,80.2,39.2,99.2"/>
	<path class="st1" d="M-17.9,780.8l26-79c0,0,83.1,8.4,144-59c47-52,29.8-145.2-73.2-143.2c-49,0.9-91.4,23-117,63
		c-14.8,23.2-20.8,80.2,39.2,99.2"/>
	<path class="st1" d="M-443.5,1290.5l26-79c0,0,83.1,8.3,144-59c47-52,29.8-145.2-73.2-143.2c-49,1-91.4,23-117,63
		c-14.8,23.2-20.8,80.2,39.2,99.2"/>
	<path class="st1" d="M-180.4,1143l26-79c0,0,83.1,8.3,144-59c47-52,29.8-145.2-73.2-143.2c-49,1-91.4,23-117,63
		c-14.8,23.2-20.8,80.2,39.2,99.2"/>
	<path class="st1" d="M90.6,1009l26-79c0,0,83.1,8.3,144-59c47-52,29.8-145.2-73.2-143.2c-49,1-91.4,23-117,63
		C55.6,814,49.6,871,109.6,890"/>
	<path class="st1" d="M-327.5,1521.5l26-79c0,0,83.1,8.3,144-59c47-52,29.8-145.2-73.2-143.2c-49,1-91.4,23-117,63
		c-14.8,23.2-20.8,80.2,39.2,99.2"/>
	<path class="st1" d="M-64.4,1374l26-79c0,0,83.1,8.3,144-59c47-52,29.8-145.2-73.2-143.2c-49,1-91.4,23-117,63
		c-14.8,23.2-20.8,80.2,39.2,99.2"/>
	<path class="st1" d="M206.6,1240l26-79c0,0,83.1,8.3,144-59c47-52,29.8-145.2-73.2-143.2c-49,1-91.4,23-117,63
		c-14.8,23.2-20.8,80.2,39.2,99.2"/>
	<path class="st1" d="M-1014,2189.9l26-79c0,0,83.1,8.3,144-59c47-52,29.8-145.2-73.2-143.2c-49,0.9-91.4,23-117,63
		c-14.8,23.2-20.8,80.2,39.2,99.2"/>
	<path class="st1" d="M-751,2042.4l26-79c0,0,83.1,8.3,144-59c47-52,29.8-145.2-73.2-143.2c-49,0.9-91.4,23-117,63
		c-14.8,23.2-20.8,80.2,39.2,99.2"/>
	<path class="st1" d="M-480,1908.4l26-79c0,0,83.1,8.3,144-59c47-52,29.8-145.2-73.2-143.2c-49,0.9-91.4,23-117,63
		c-14.8,23.2-20.8,80.2,39.2,99.2"/>
	<path class="st1" d="M-905.6,2418.1l26-79c0,0,83.1,8.4,144-59c47-52,29.8-145.2-73.2-143.2c-49,0.9-91.4,23-117,63
		c-14.8,23.2-20.8,80.2,39.2,99.2"/>
	<path class="st1" d="M-642.5,2270.6l26-79c0,0,83.1,8.3,144-59c47-52,29.8-145.2-73.2-143.2c-49,0.9-91.4,23-117,63
		c-14.8,23.2-20.8,80.2,39.2,99.2"/>
	<path class="st1" d="M-371.5,2136.6l26-79c0,0,83.1,8.3,144-59c47-52,29.8-145.2-73.2-143.2c-49,0.9-91.4,23-117,63
		c-14.8,23.2-20.8,80.2,39.2,99.2"/>
	<path class="st1" d="M-789.6,2649.1l26-79c0,0,83.1,8.4,144-59c47-52,29.8-145.2-73.2-143.2c-49,0.9-91.4,23-117,63
		c-14.8,23.2-20.8,80.2,39.2,99.2"/>
	<path class="st1" d="M-526.5,2501.6l26-79c0,0,83.1,8.4,144-59c47-52,29.8-145.2-73.2-143.2c-49,0.9-91.4,23-117,63
		c-14.8,23.2-20.8,80.2,39.2,99.2"/>
	<path class="st1" d="M-255.5,2367.6l26-79c0,0,83.1,8.3,144-59c47-52,29.8-145.2-73.2-143.2c-49,0.9-91.4,23-117,63
		c-14.8,23.2-20.8,80.2,39.2,99.2"/>
	<path class="st1" d="M-209.8,1754.7l26-79c0,0,83.1,8.3,144-59c47-52,29.8-145.2-73.2-143.2c-49,0.9-91.4,23-117,63
		c-14.8,23.2-20.8,80.2,39.2,99.2"/>
	<path class="st1" d="M53.2,1607.2l26-79c0,0,83.1,8.3,144-59c47-52,29.8-145.2-73.2-143.2c-49,0.9-91.4,23-117,63
		c-14.8,23.2-20.8,80.2,39.2,99.2"/>
	<path class="st1" d="M324.2,1473.2l26-79c0,0,83.1,8.3,144-59c47-52,29.8-145.2-73.2-143.2c-49,1-91.4,23-117,63
		c-14.8,23.2-20.8,80.2,39.2,99.2"/>
	<path class="st1" d="M-101.3,1982.8l26-79c0,0,83.1,8.3,144-59c47-52,29.8-145.2-73.2-143.2c-49,0.9-91.4,23-117,63
		c-14.8,23.2-20.8,80.2,39.2,99.2"/>
	<path class="st1" d="M161.7,1835.3l26-79c0,0,83.1,8.3,144-59c47-52,29.8-145.2-73.2-143.2c-49,0.9-91.4,23-117,63
		c-14.8,23.2-20.8,80.2,39.2,99.2"/>
	<path class="st1" d="M432.7,1701.3l26-79c0,0,83.1,8.3,144-59c47-52,29.8-145.2-73.2-143.2c-49,0.9-91.4,23-117,63
		c-14.8,23.2-20.8,80.2,39.2,99.2"/>
	<path class="st1" d="M14.7,2213.8l26-79c0,0,83.1,8.3,144-59c47-52,29.8-145.2-73.2-143.2c-49,0.9-91.4,23-117,63
		c-14.8,23.2-20.8,80.2,39.2,99.2"/>
	<path class="st1" d="M277.7,2066.3l26-79c0,0,83.1,8.3,144-59c47-52,29.8-145.2-73.2-143.2c-49,0.9-91.4,23-117,63
		c-14.8,23.2-20.8,80.2,39.2,99.2"/>
	<path class="st1" d="M548.7,1932.3l26-79c0,0,83.1,8.3,144-59c47-52,29.8-145.2-73.2-143.2c-49,0.9-91.4,23-117,63
		c-14.8,23.2-20.8,80.2,39.2,99.2"/>
	<path class="st1" d="M244.3,634.7l26-79c0,0,83.1,8.4,144-59c47-52,29.8-145.2-73.2-143.2c-49,0.9-91.4,23-117,63
		c-14.8,23.2-20.8,80.2,39.2,99.2"/>
	<path class="st1" d="M507.3,487.2l26-79c0,0,83.1,8.4,144-59c47-52,29.8-145.2-73.2-143.2c-49,1-91.4,23-117,63
		c-14.8,23.2-20.8,80.2,39.2,99.2"/>
	<path class="st1" d="M778.3,353.2l26-79c0,0,83.1,8.3,144-59c47-52,29.8-145.2-73.2-143.2c-49,0.9-91.4,23-117,63
		c-14.8,23.2-20.8,80.2,39.2,99.2"/>
	<path class="st1" d="M352.8,862.9l26-79c0,0,83.1,8.3,144-59c47-52,29.8-145.2-73.2-143.2c-49,1-91.4,23-117,63
		c-14.8,23.2-20.8,80.2,39.2,99.2"/>
	<path class="st1" d="M615.8,715.4l26-79c0,0,83.1,8.4,144-59c47-52,29.8-145.2-73.2-143.2c-49,0.9-91.4,23-117,63
		c-14.8,23.2-20.8,80.2,39.2,99.2"/>
	<path class="st1" d="M886.8,581.4l26-79c0,0,83.1,8.4,144-59c47-52,29.8-145.2-73.2-143.2c-49,1-91.4,23-117,63
		c-14.8,23.2-20.8,80.2,39.2,99.2"/>
	<path class="st1" d="M468.8,1093.9l26-79c0,0,83.1,8.3,144-59c47-52,29.8-145.2-73.2-143.2c-49,1-91.4,23-117,63
		c-14.8,23.2-20.8,80.2,39.2,99.2"/>
	<path class="st1" d="M731.8,946.4l26-79c0,0,83.1,8.3,144-59c47-52,29.8-145.2-73.2-143.2c-49,1-91.4,23-117,63
		c-14.8,23.2-20.8,80.2,39.2,99.2"/>
	<path class="st1" d="M1002.8,812.4l26-79c0,0,83.1,8.4,144-59c47-52,29.8-145.2-73.2-143.2c-49,1-91.4,23-117,63
		c-14.8,23.2-20.8,80.2,39.2,99.2"/>
	<path class="st1" d="M1048.5,199.4l26-79c0,0,83.1,8.4,144-59c47-52,29.8-145.2-73.2-143.2c-49,1-91.4,23-117,63
		c-14.8,23.2-20.8,80.2,39.2,99.2"/>
	<path class="st1" d="M1311.6,51.9l26-79c0,0,83.1,8.4,144-59c47-52,29.8-145.2-73.2-143.2c-49,1-91.4,23-117,63
		c-14.8,23.2-20.8,80.2,39.2,99.2"/>
	<path class="st1" d="M1582.6-82.1l26-79c0,0,83.1,8.4,144-59c47-52,29.8-145.2-73.2-143.2c-49,1-91.4,23-117,63
		c-14.8,23.2-20.8,80.2,39.2,99.2"/>
	<path class="st1" d="M1157,427.6l26-79c0,0,83.1,8.3,144-59c47-52,29.8-145.2-73.2-143.2c-49,0.9-91.4,23-117,63
		c-14.8,23.2-20.8,80.2,39.2,99.2"/>
	<path class="st1" d="M1420,280.1l26-79c0,0,83.1,8.3,144-59c47-52,29.8-145.2-73.2-143.2c-49,1-91.4,23-117,63
		c-14.8,23.2-20.8,80.2,39.2,99.2"/>
	<path class="st1" d="M1691,146.1l26-79c0,0,83.1,8.4,144-59c47-52,29.8-145.2-73.2-143.2c-49,1-91.4,23-117,63
		C1656-48.9,1650,8.1,1710,27.1"/>
	<path class="st1" d="M1273,658.6l26-79c0,0,83.1,8.4,144-59c47-52,29.8-145.2-73.2-143.2c-49,0.9-91.4,23-117,63
		c-14.8,23.2-20.8,80.2,39.2,99.2"/>
	<path class="st1" d="M1536,511.1l26-79c0,0,83.1,8.4,144-59c47-52,29.8-145.2-73.2-143.2c-49,1-91.4,23-117,63
		c-14.8,23.2-20.8,80.2,39.2,99.2"/>
	<path class="st1" d="M1807,377.1l26-79c0,0,83.1,8.3,144-59c47-52,29.8-145.2-73.2-143.2c-49,0.9-91.4,23-117,63
		c-14.8,23.2-20.8,80.2,39.2,99.2"/>
	<path class="st1" d="M586.4,1327.1l26-79c0,0,83.1,8.3,144-59c47-52,29.8-145.2-73.2-143.2c-49,1-91.4,23-117,63
		c-14.8,23.2-20.8,80.2,39.2,99.2"/>
	<path class="st1" d="M849.4,1179.6l26-79c0,0,83.1,8.3,144-59c47-52,29.8-145.2-73.2-143.2c-49,1-91.4,23-117,63
		c-14.8,23.2-20.8,80.2,39.2,99.2"/>
	<path class="st1" d="M1120.4,1045.6l26-79c0,0,83.1,8.3,144-59c47-52,29.8-145.2-73.2-143.2c-49,1-91.4,23-117,63
		c-14.8,23.2-20.8,80.2,39.2,99.2"/>
	<path class="st1" d="M694.9,1555.2l26-79c0,0,83.1,8.3,144-59c47-52,29.8-145.2-73.2-143.2c-49,1-91.4,23-117,63
		c-14.8,23.2-20.8,80.2,39.2,99.2"/>
	<path class="st1" d="M957.9,1407.7l26-79c0,0,83.1,8.3,144-59c47-52,29.8-145.2-73.2-143.2c-49,1-91.4,23-117,63
		c-14.8,23.2-20.8,80.2,39.2,99.2"/>
	<path class="st1" d="M1228.9,1273.7l26-79c0,0,83.1,8.3,144-59c47-52,29.8-145.2-73.2-143.2c-49,1-91.4,23-117,63
		c-14.8,23.2-20.8,80.2,39.2,99.2"/>
	<path class="st1" d="M810.9,1786.2l26-79c0,0,83.1,8.3,144-59c47-52,29.8-145.2-73.2-143.2c-49,0.9-91.4,23-117,63
		c-14.8,23.2-20.8,80.2,39.2,99.2"/>
	<path class="st1" d="M1073.9,1638.7l26-79c0,0,83.1,8.3,144-59c47-52,29.8-145.2-73.2-143.2c-49,0.9-91.4,23-117,63
		c-14.8,23.2-20.8,80.2,39.2,99.2"/>
	<path class="st1" d="M1344.9,1504.7l26-79c0,0,83.1,8.3,144-59c47-52,29.8-145.2-73.2-143.2c-49,1-91.4,23-117,63
		c-14.8,23.2-20.8,80.2,39.2,99.2"/>
	<path class="st1" d="M1390.6,891.8l26-79c0,0,83.1,8.3,144-59c47-52,29.8-145.2-73.2-143.2c-49,1-91.4,23-117,63
		c-14.8,23.2-20.8,80.2,39.2,99.2"/>
	<path class="st1" d="M1653.7,744.3l26-79c0,0,83.1,8.4,144-59c47-52,29.8-145.2-73.2-143.2c-49,0.9-91.4,23-117,63
		c-14.8,23.2-20.8,80.2,39.2,99.2"/>
	<path class="st1" d="M1924.7,610.3l26-79c0,0,83.1,8.4,144-59c47-52,29.8-145.2-73.2-143.2c-49,0.9-91.4,23-117,63
		c-14.8,23.2-20.8,80.2,39.2,99.2"/>
	<path class="st1" d="M1499.1,1120l26-79c0,0,83.1,8.3,144-59c47-52,29.8-145.2-73.2-143.2c-49,1-91.4,23-117,63
		c-14.8,23.2-20.8,80.2,39.2,99.2"/>
	<path class="st1" d="M1762.1,972.5l26-79c0,0,83.1,8.3,144-59c47-52,29.8-145.2-73.2-143.2c-49,1-91.4,23-117,63
		c-14.8,23.2-20.8,80.2,39.2,99.2"/>
	<path class="st1" d="M2033.1,838.5l26-79c0,0,83.1,8.4,144-59c47-52,29.8-145.2-73.2-143.2c-49,1-91.4,23-117,63
		c-14.8,23.2-20.8,80.2,39.2,99.2"/>
	<path class="st1" d="M1615.1,1351l26-79c0,0,83.1,8.3,144-59c47-52,29.8-145.2-73.2-143.2c-49,1-91.4,23-117,63
		c-14.8,23.2-20.8,80.2,39.2,99.2"/>
	<path class="st1" d="M1878.1,1203.5l26-79c0,0,83.1,8.3,144-59c47-52,29.8-145.2-73.2-143.2c-49,1-91.4,23-117,63
		c-14.8,23.2-20.8,80.2,39.2,99.2"/>
	<path class="st1" d="M2149.1,1069.5l26-79c0,0,83.1,8.3,144-59c47-52,29.8-145.2-73.2-143.2c-49,1-91.4,23-117,63
		c-14.8,23.2-20.8,80.2,39.2,99.2"/>
</g>
<path class="st2" d="M192.3,599.9l4.9,263.6c0.1,7.9,6.2,14.4,14.1,15.2l205,19.5c27.9,2.7,56.1,0.8,83.4-5.5l44.8-10.3
	c35.7-8.2,61-40,61-76.6V614.1c0-33.9-26.9-61.8-60.8-62.9l-83.3-2.9L489.6,379c1.4-8.6-4.4-16.6-13-17.9l-51.1-7.7
	c-19.2-2.9-37.9,7.6-45.3,25.5l-24.8,59.2c-18.9,45.2-51.4,83.4-93,109.2l-62.7,39C195,589.3,192.2,594.4,192.3,599.9z"/>
<path class="st2" d="M28.8,584.1v301.2c0,7.9,5.9,14.5,13.7,15.4l78.2,9.2c9.3,1.1,17.5-6.3,17.4-15.7L133,570.5
	c-0.1-9.6-8.9-16.8-18.3-15l-73.2,13.3C34.2,570.1,28.8,576.6,28.8,584.1z"/>
</svg>
