<?xml version="1.0" encoding="utf-8"?>
<!-- Generator: Adobe Illustrator 26.3.1, SVG Export Plug-In . SVG Version: 6.00 Build 0)  -->
<svg version="1.1" id="图层_1" xmlns="http://www.w3.org/2000/svg" xmlns:xlink="http://www.w3.org/1999/xlink" x="0px" y="0px"
	 viewBox="0 0 625.4 940.5" style="enable-background:new 0 0 625.4 940.5;" xml:space="preserve">
<style type="text/css">
	.st0{display:none;}
	.st1{display:inline;opacity:0.27;fill:none;stroke:#003B55;stroke-width:40;stroke-miterlimit:10;enable-background:new    ;}
	.st2{fill:none;stroke:#000000;stroke-width:40;stroke-miterlimit:10;}
</style>
<g id="图层_2_00000081614852343316006630000002261520102280522373_" class="st0">
	<path class="st1" d="M-1356.1,1328.1l26-79c0,0,83.1,8.3,144-59c47-52,29.8-145.2-73.2-143.2c-49,1-91.4,23-117,63
		c-14.8,23.2-20.8,80.2,39.2,99.2"/>
	<path class="st1" d="M-1093.1,1180.6l26-79c0,0,83.1,8.3,144-59c47-52,29.8-145.2-73.2-143.2c-49,1-91.4,23-117,63
		c-14.8,23.2-20.8,80.2,39.2,99.2"/>
	<path class="st1" d="M-822.1,1046.6l26-79c0,0,83.1,8.3,144-59c47-52,29.8-145.2-73.2-143.2c-49,1-91.4,23-117,63
		c-14.8,23.2-20.8,80.2,39.2,99.2"/>
	<path class="st1" d="M-1247.7,1556.2l26-79c0,0,83.1,8.3,144-59c47-52,29.8-145.2-73.2-143.2c-49,0.9-91.4,23-117,63
		c-14.8,23.2-20.8,80.2,39.2,99.2"/>
	<path class="st1" d="M-984.6,1408.7l26-79c0,0,83.1,8.3,144-59c47-52,29.8-145.2-73.2-143.2c-49,0.9-91.4,23-117,63
		c-14.8,23.2-20.8,80.2,39.2,99.2"/>
	<path class="st1" d="M-713.6,1274.7l26-79c0,0,83.1,8.3,144-59c47-52,29.8-145.2-73.2-143.2c-49,1-91.4,23-117,63
		c-14.8,23.2-20.8,80.2,39.2,99.2"/>
	<path class="st1" d="M-1131.7,1787.2l26-79c0,0,83.1,8.3,144-59c47-52,29.8-145.2-73.2-143.2c-49,0.9-91.4,23-117,63
		c-14.8,23.2-20.8,80.2,39.2,99.2"/>
	<path class="st1" d="M-868.6,1639.7l26-79c0,0,83.1,8.3,144-59c47-52,29.8-145.2-73.2-143.2c-49,0.9-91.4,23-117,63
		c-14.8,23.2-20.8,80.2,39.2,99.2"/>
	<path class="st1" d="M-597.6,1505.7l26-79c0,0,83.1,8.3,144-59c47-52,29.8-145.2-73.2-143.2c-49,0.9-91.4,23-117,63
		c-14.8,23.2-20.8,80.2,39.2,99.2"/>
	<path class="st1" d="M-551.9,892.8l26-79c0,0,83.1,8.3,144-59c47-52,29.8-145.2-73.2-143.2c-49,1-91.4,23-117,63
		c-14.8,23.2-20.8,80.2,39.2,99.2"/>
	<path class="st1" d="M-288.9,745.3l26-79c0,0,83.1,8.3,144-59c47-52,29.8-145.2-73.2-143.2c-49,1-91.4,23-117,63
		c-14.8,23.2-20.8,80.2,39.2,99.2"/>
	<path class="st1" d="M-17.9,611.3l26-79c0,0,83.1,8.4,144-59c47-52,29.8-145.2-73.2-143.2c-49,0.9-91.4,23-117,63
		c-14.8,23.2-20.8,80.2,39.2,99.2"/>
	<path class="st1" d="M-443.5,1121l26-79c0,0,83.1,8.3,144-59c47-52,29.8-145.2-73.2-143.2c-49,1-91.4,23-117,63
		c-14.8,23.2-20.8,80.2,39.2,99.2"/>
	<path class="st1" d="M-180.4,973.5l26-79c0,0,83.1,8.3,144-59c47-52,29.8-145.2-73.2-143.2c-49,1-91.4,23-117,63
		c-14.8,23.2-20.8,80.2,39.2,99.2"/>
	<path class="st1" d="M90.6,839.5l26-79c0,0,83.1,8.3,144-59c47-52,29.8-145.2-73.2-143.2c-49,1-91.4,23-117,63
		c-14.8,23.2-20.8,80.2,39.2,99.2"/>
	<path class="st1" d="M-327.5,1352l26-79c0,0,83.1,8.3,144-59c47-52,29.8-145.2-73.2-143.2c-49,1-91.4,23-117,63
		c-14.8,23.2-20.8,80.2,39.2,99.2"/>
	<path class="st1" d="M-64.4,1204.5l26-79c0,0,83.1,8.3,144-59c47-52,29.8-145.2-73.2-143.2c-49,1-91.4,23-117,63
		c-14.8,23.2-20.8,80.2,39.2,99.2"/>
	<path class="st1" d="M206.6,1070.5l26-79c0,0,83.1,8.3,144-59c47-52,29.8-145.2-73.2-143.2c-49,1-91.4,23-117,63
		c-14.8,23.2-20.8,80.2,39.2,99.2"/>
	<path class="st1" d="M-1014,2020.4l26-79c0,0,83.1,8.3,144-59c47-52,29.8-145.2-73.2-143.2c-49,0.9-91.4,23-117,63
		c-14.8,23.2-20.8,80.2,39.2,99.2"/>
	<path class="st1" d="M-751,1872.9l26-79c0,0,83.1,8.3,144-59c47-52,29.8-145.2-73.2-143.2c-49,0.9-91.4,23-117,63
		c-14.8,23.2-20.8,80.2,39.2,99.2"/>
	<path class="st1" d="M-480,1738.9l26-79c0,0,83.1,8.3,144-59c47-52,29.8-145.2-73.2-143.2c-49,0.9-91.4,23-117,63
		c-14.8,23.2-20.8,80.2,39.2,99.2"/>
	<path class="st1" d="M-905.6,2248.6l26-79c0,0,83.1,8.4,144-59c47-52,29.8-145.2-73.2-143.2c-49,0.9-91.4,23-117,63
		c-14.8,23.2-20.8,80.2,39.2,99.2"/>
	<path class="st1" d="M-642.5,2101.1l26-79c0,0,83.1,8.3,144-59c47-52,29.8-145.2-73.2-143.2c-49,0.9-91.4,23-117,63
		c-14.8,23.2-20.8,80.2,39.2,99.2"/>
	<path class="st1" d="M-371.5,1967.1l26-79c0,0,83.1,8.3,144-59c47-52,29.8-145.2-73.2-143.2c-49,0.9-91.4,23-117,63
		c-14.8,23.2-20.8,80.2,39.2,99.2"/>
	<path class="st1" d="M-789.6,2479.6l26-79c0,0,83.1,8.4,144-59c47-52,29.8-145.2-73.2-143.2c-49,0.9-91.4,23-117,63
		c-14.8,23.2-20.8,80.2,39.2,99.2"/>
	<path class="st1" d="M-526.5,2332.1l26-79c0,0,83.1,8.4,144-59c47-52,29.8-145.2-73.2-143.2c-49,0.9-91.4,23-117,63
		c-14.8,23.2-20.8,80.2,39.2,99.2"/>
	<path class="st1" d="M-255.5,2198.1l26-79c0,0,83.1,8.3,144-59c47-52,29.8-145.2-73.2-143.2c-49,0.9-91.4,23-117,63
		c-14.8,23.2-20.8,80.2,39.2,99.2"/>
	<path class="st1" d="M-209.8,1585.2l26-79c0,0,83.1,8.3,144-59c47-52,29.8-145.2-73.2-143.2c-49,0.9-91.4,23-117,63
		c-14.8,23.2-20.8,80.2,39.2,99.2"/>
	<path class="st1" d="M53.2,1437.7l26-79c0,0,83.1,8.3,144-59c47-52,29.8-145.2-73.2-143.2c-49,0.9-91.4,23-117,63
		c-14.8,23.2-20.8,80.2,39.2,99.2"/>
	<path class="st1" d="M324.2,1303.7l26-79c0,0,83.1,8.3,144-59c47-52,29.8-145.2-73.2-143.2c-49,1-91.4,23-117,63
		c-14.8,23.2-20.8,80.2,39.2,99.2"/>
	<path class="st1" d="M-101.3,1813.3l26-79c0,0,83.1,8.3,144-59c47-52,29.8-145.2-73.2-143.2c-49,0.9-91.4,23-117,63
		c-14.8,23.2-20.8,80.2,39.2,99.2"/>
	<path class="st1" d="M161.7,1665.8l26-79c0,0,83.1,8.3,144-59c47-52,29.8-145.2-73.2-143.2c-49,0.9-91.4,23-117,63
		c-14.8,23.2-20.8,80.2,39.2,99.2"/>
	<path class="st1" d="M432.7,1531.8l26-79c0,0,83.1,8.3,144-59c47-52,29.8-145.2-73.2-143.2c-49,0.9-91.4,23-117,63
		c-14.8,23.2-20.8,80.2,39.2,99.2"/>
	<path class="st1" d="M14.7,2044.3l26-79c0,0,83.1,8.3,144-59c47-52,29.8-145.2-73.2-143.2c-49,0.9-91.4,23-117,63
		c-14.8,23.2-20.8,80.2,39.2,99.2"/>
	<path class="st1" d="M277.7,1896.8l26-79c0,0,83.1,8.3,144-59c47-52,29.8-145.2-73.2-143.2c-49,0.9-91.4,23-117,63
		c-14.8,23.2-20.8,80.2,39.2,99.2"/>
	<path class="st1" d="M548.7,1762.8l26-79c0,0,83.1,8.3,144-59c47-52,29.8-145.2-73.2-143.2c-49,0.9-91.4,23-117,63
		c-14.8,23.2-20.8,80.2,39.2,99.2"/>
	<path class="st1" d="M244.3,465.2l26-79c0,0,83.1,8.4,144-59c47-52,29.8-145.2-73.2-143.2c-49,0.9-91.4,23-117,63
		c-14.8,23.2-20.8,80.2,39.2,99.2"/>
	<path class="st1" d="M507.3,317.7l26-79c0,0,83.1,8.4,144-59c47-52,29.8-145.2-73.2-143.2c-49,1-91.4,23-117,63
		c-14.8,23.2-20.8,80.2,39.2,99.2"/>
	<path class="st1" d="M778.3,183.7l26-79c0,0,83.1,8.3,144-59c47-52,29.8-145.2-73.2-143.2c-49,0.9-91.4,23-117,63
		c-14.8,23.2-20.8,80.2,39.2,99.2"/>
	<path class="st1" d="M352.8,693.4l26-79c0,0,83.1,8.3,144-59c47-52,29.8-145.2-73.2-143.2c-49,1-91.4,23-117,63
		c-14.8,23.2-20.8,80.2,39.2,99.2"/>
	<path class="st1" d="M615.8,545.9l26-79c0,0,83.1,8.4,144-59c47-52,29.8-145.2-73.2-143.2c-49,0.9-91.4,23-117,63
		c-14.8,23.2-20.8,80.2,39.2,99.2"/>
	<path class="st1" d="M886.8,411.9l26-79c0,0,83.1,8.4,144-59c47-52,29.8-145.2-73.2-143.2c-49,1-91.4,23-117,63
		c-14.8,23.2-20.8,80.2,39.2,99.2"/>
	<path class="st1" d="M468.8,924.4l26-79c0,0,83.1,8.3,144-59c47-52,29.8-145.2-73.2-143.2c-49,1-91.4,23-117,63
		c-14.8,23.2-20.8,80.2,39.2,99.2"/>
	<path class="st1" d="M731.8,776.9l26-79c0,0,83.1,8.3,144-59c47-52,29.8-145.2-73.2-143.2c-49,1-91.4,23-117,63
		c-14.8,23.2-20.8,80.2,39.2,99.2"/>
	<path class="st1" d="M1002.8,642.9l26-79c0,0,83.1,8.4,144-59c47-52,29.8-145.2-73.2-143.2c-49,1-91.4,23-117,63
		c-14.8,23.2-20.8,80.2,39.2,99.2"/>
	<path class="st1" d="M1048.5,29.9l26-79c0,0,83.1,8.4,144-59c47-52,29.8-145.2-73.2-143.2c-49,1-91.4,23-117,63
		c-14.8,23.2-20.8,80.2,39.2,99.2"/>
	<path class="st1" d="M1311.6-117.6l26-79c0,0,83.1,8.4,144-59c47-52,29.8-145.2-73.2-143.2c-49,1-91.4,23-117,63
		c-14.8,23.2-20.8,80.2,39.2,99.2"/>
	<path class="st1" d="M1582.6-251.6l26-79c0,0,83.1,8.4,144-59c47-52,29.8-145.2-73.2-143.2c-49,1-91.4,23-117,63
		c-14.8,23.2-20.8,80.2,39.2,99.2"/>
	<path class="st1" d="M1157,258.1l26-79c0,0,83.1,8.3,144-59c47-52,29.8-145.2-73.2-143.2c-49,0.9-91.4,23-117,63
		c-14.8,23.2-20.8,80.2,39.2,99.2"/>
	<path class="st1" d="M1420,110.6l26-79c0,0,83.1,8.3,144-59c47-52,29.8-145.2-73.2-143.2c-49,1-91.4,23-117,63
		C1385-84.4,1379-27.4,1439-8.4"/>
	<path class="st1" d="M1691-23.4l26-79c0,0,83.1,8.4,144-59c47-52,29.8-145.2-73.2-143.2c-49,1-91.4,23-117,63
		c-14.8,23.2-20.8,80.2,39.2,99.2"/>
	<path class="st1" d="M1273,489.1l26-79c0,0,83.1,8.4,144-59c47-52,29.8-145.2-73.2-143.2c-49,0.9-91.4,23-117,63
		c-14.8,23.2-20.8,80.2,39.2,99.2"/>
	<path class="st1" d="M1536,341.6l26-79c0,0,83.1,8.4,144-59c47-52,29.8-145.2-73.2-143.2c-49,1-91.4,23-117,63
		c-14.8,23.2-20.8,80.2,39.2,99.2"/>
	<path class="st1" d="M1807,207.6l26-79c0,0,83.1,8.3,144-59c47-52,29.8-145.2-73.2-143.2c-49,0.9-91.4,23-117,63
		C1772,12.6,1766,69.6,1826,88.6"/>
	<path class="st1" d="M586.4,1157.6l26-79c0,0,83.1,8.3,144-59c47-52,29.8-145.2-73.2-143.2c-49,1-91.4,23-117,63
		c-14.8,23.2-20.8,80.2,39.2,99.2"/>
	<path class="st1" d="M849.4,1010.1l26-79c0,0,83.1,8.3,144-59c47-52,29.8-145.2-73.2-143.2c-49,1-91.4,23-117,63
		c-14.8,23.2-20.8,80.2,39.2,99.2"/>
	<path class="st1" d="M1120.4,876.1l26-79c0,0,83.1,8.3,144-59c47-52,29.8-145.2-73.2-143.2c-49,1-91.4,23-117,63
		c-14.8,23.2-20.8,80.2,39.2,99.2"/>
	<path class="st1" d="M694.9,1385.7l26-79c0,0,83.1,8.3,144-59c47-52,29.8-145.2-73.2-143.2c-49,1-91.4,23-117,63
		c-14.8,23.2-20.8,80.2,39.2,99.2"/>
	<path class="st1" d="M957.9,1238.2l26-79c0,0,83.1,8.3,144-59c47-52,29.8-145.2-73.2-143.2c-49,1-91.4,23-117,63
		c-14.8,23.2-20.8,80.2,39.2,99.2"/>
	<path class="st1" d="M1228.9,1104.2l26-79c0,0,83.1,8.3,144-59c47-52,29.8-145.2-73.2-143.2c-49,1-91.4,23-117,63
		c-14.8,23.2-20.8,80.2,39.2,99.2"/>
	<path class="st1" d="M810.9,1616.7l26-79c0,0,83.1,8.3,144-59c47-52,29.8-145.2-73.2-143.2c-49,0.9-91.4,23-117,63
		c-14.8,23.2-20.8,80.2,39.2,99.2"/>
	<path class="st1" d="M1073.9,1469.2l26-79c0,0,83.1,8.3,144-59c47-52,29.8-145.2-73.2-143.2c-49,0.9-91.4,23-117,63
		c-14.8,23.2-20.8,80.2,39.2,99.2"/>
	<path class="st1" d="M1344.9,1335.2l26-79c0,0,83.1,8.3,144-59c47-52,29.8-145.2-73.2-143.2c-49,1-91.4,23-117,63
		c-14.8,23.2-20.8,80.2,39.2,99.2"/>
	<path class="st1" d="M1390.6,722.3l26-79c0,0,83.1,8.3,144-59c47-52,29.8-145.2-73.2-143.2c-49,1-91.4,23-117,63
		c-14.8,23.2-20.8,80.2,39.2,99.2"/>
	<path class="st1" d="M1653.7,574.8l26-79c0,0,83.1,8.4,144-59c47-52,29.8-145.2-73.2-143.2c-49,0.9-91.4,23-117,63
		c-14.8,23.2-20.8,80.2,39.2,99.2"/>
	<path class="st1" d="M1924.7,440.8l26-79c0,0,83.1,8.4,144-59c47-52,29.8-145.2-73.2-143.2c-49,0.9-91.4,23-117,63
		c-14.8,23.2-20.8,80.2,39.2,99.2"/>
	<path class="st1" d="M1499.1,950.5l26-79c0,0,83.1,8.3,144-59c47-52,29.8-145.2-73.2-143.2c-49,1-91.4,23-117,63
		c-14.8,23.2-20.8,80.2,39.2,99.2"/>
	<path class="st1" d="M1762.1,803l26-79c0,0,83.1,8.3,144-59c47-52,29.8-145.2-73.2-143.2c-49,1-91.4,23-117,63
		c-14.8,23.2-20.8,80.2,39.2,99.2"/>
	<path class="st1" d="M2033.1,669l26-79c0,0,83.1,8.4,144-59c47-52,29.8-145.2-73.2-143.2c-49,1-91.4,23-117,63
		c-14.8,23.2-20.8,80.2,39.2,99.2"/>
	<path class="st1" d="M1615.1,1181.5l26-79c0,0,83.1,8.3,144-59c47-52,29.8-145.2-73.2-143.2c-49,1-91.4,23-117,63
		c-14.8,23.2-20.8,80.2,39.2,99.2"/>
	<path class="st1" d="M1878.1,1034l26-79c0,0,83.1,8.3,144-59c47-52,29.8-145.2-73.2-143.2c-49,1-91.4,23-117,63
		c-14.8,23.2-20.8,80.2,39.2,99.2"/>
	<path class="st1" d="M2149.1,900l26-79c0,0,83.1,8.3,144-59c47-52,29.8-145.2-73.2-143.2c-49,1-91.4,23-117,63
		c-14.8,23.2-20.8,80.2,39.2,99.2"/>
</g>
<path class="st2" d="M192.3,430.4l4.9,263.6c0.1,7.9,6.2,14.4,14.1,15.2l205,19.5c27.9,2.7,56.1,0.8,83.4-5.5l44.8-10.3
	c35.7-8.2,61-40,61-76.6V444.6c0-33.9-26.9-61.8-60.8-62.9l-83.3-2.9l28.2-169.3c1.4-8.6-4.4-16.6-13-17.9l-51.1-7.7
	c-19.2-2.9-37.9,7.6-45.3,25.5l-24.8,59.2c-18.9,45.2-51.4,83.4-93,109.2l-62.7,39C195,419.8,192.2,424.9,192.3,430.4z"/>
<path class="st2" d="M28.8,414.6v301.2c0,7.9,5.9,14.5,13.7,15.4l78.2,9.2c9.3,1.1,17.5-6.3,17.4-15.7L133,401
	c-0.1-9.6-8.9-16.8-18.3-15l-73.2,13.3C34.2,400.6,28.8,407.1,28.8,414.6z"/>
</svg>
