<?xml version="1.0" encoding="utf-8"?>
<!-- Generator: Adobe Illustrator 26.3.1, SVG Export Plug-In . SVG Version: 6.00 Build 0)  -->
<svg version="1.1" id="图层_1" xmlns="http://www.w3.org/2000/svg" xmlns:xlink="http://www.w3.org/1999/xlink" x="0px" y="0px"
	 viewBox="0 0 625.4 916.8" style="enable-background:new 0 0 625.4 916.8;" xml:space="preserve">
<style type="text/css">
	.st0{display:none;}
	.st1{display:inline;opacity:0.27;fill:none;stroke:#003B55;stroke-width:40;stroke-miterlimit:10;enable-background:new    ;}
	.st2{stroke:#000000;stroke-width:20;stroke-miterlimit:10;}
</style>
<g id="图层_2_00000081614852343316006630000002261520102280522373_" class="st0">
	<path class="st1" d="M-1356.1,1302.5l26-79c0,0,83.1,8.3,144-59c47-52,29.8-145.2-73.2-143.2c-49,1-91.4,23-117,63
		c-14.8,23.2-20.8,80.2,39.2,99.2"/>
	<path class="st1" d="M-1093.1,1155l26-79c0,0,83.1,8.3,144-59c47-52,29.8-145.2-73.2-143.2c-49,1-91.4,23-117,63
		c-14.8,23.2-20.8,80.2,39.2,99.2"/>
	<path class="st1" d="M-822.1,1021l26-79c0,0,83.1,8.3,144-59c47-52,29.8-145.2-73.2-143.2c-49,1-91.4,23-117,63
		c-14.8,23.2-20.8,80.2,39.2,99.2"/>
	<path class="st1" d="M-1247.7,1530.6l26-79c0,0,83.1,8.3,144-59c47-52,29.8-145.2-73.2-143.2c-49,0.9-91.4,23-117,63
		c-14.8,23.2-20.8,80.2,39.2,99.2"/>
	<path class="st1" d="M-984.6,1383.1l26-79c0,0,83.1,8.3,144-59c47-52,29.8-145.2-73.2-143.2c-49,0.9-91.4,23-117,63
		c-14.8,23.2-20.8,80.2,39.2,99.2"/>
	<path class="st1" d="M-713.6,1249.1l26-79c0,0,83.1,8.3,144-59c47-52,29.8-145.2-73.2-143.2c-49,1-91.4,23-117,63
		c-14.8,23.2-20.8,80.2,39.2,99.2"/>
	<path class="st1" d="M-1131.7,1761.6l26-79c0,0,83.1,8.3,144-59c47-52,29.8-145.2-73.2-143.2c-49,0.9-91.4,23-117,63
		c-14.8,23.2-20.8,80.2,39.2,99.2"/>
	<path class="st1" d="M-868.6,1614.1l26-79c0,0,83.1,8.3,144-59c47-52,29.8-145.2-73.2-143.2c-49,0.9-91.4,23-117,63
		c-14.8,23.2-20.8,80.2,39.2,99.2"/>
	<path class="st1" d="M-597.6,1480.1l26-79c0,0,83.1,8.3,144-59c47-52,29.8-145.2-73.2-143.2c-49,0.9-91.4,23-117,63
		c-14.8,23.2-20.8,80.2,39.2,99.2"/>
	<path class="st1" d="M-551.9,867.2l26-79c0,0,83.1,8.3,144-59c47-52,29.8-145.2-73.2-143.2c-49,1-91.4,23-117,63
		c-14.8,23.2-20.8,80.2,39.2,99.2"/>
	<path class="st1" d="M-288.9,719.7l26-79c0,0,83.1,8.3,144-59c47-52,29.8-145.2-73.2-143.2c-49,1-91.4,23-117,63
		c-14.8,23.2-20.8,80.2,39.2,99.2"/>
	<path class="st1" d="M-17.9,585.7l26-79c0,0,83.1,8.4,144-59c47-52,29.8-145.2-73.2-143.2c-49,0.9-91.4,23-117,63
		c-14.8,23.2-20.8,80.2,39.2,99.2"/>
	<path class="st1" d="M-443.5,1095.4l26-79c0,0,83.1,8.3,144-59c47-52,29.8-145.2-73.2-143.2c-49,1-91.4,23-117,63
		c-14.8,23.2-20.8,80.2,39.2,99.2"/>
	<path class="st1" d="M-180.4,947.9l26-79c0,0,83.1,8.3,144-59c47-52,29.8-145.2-73.2-143.2c-49,1-91.4,23-117,63
		c-14.8,23.2-20.8,80.2,39.2,99.2"/>
	<path class="st1" d="M90.6,813.9l26-79c0,0,83.1,8.3,144-59c47-52,29.8-145.2-73.2-143.2c-49,1-91.4,23-117,63
		c-14.8,23.2-20.8,80.2,39.2,99.2"/>
	<path class="st1" d="M-327.5,1326.4l26-79c0,0,83.1,8.3,144-59c47-52,29.8-145.2-73.2-143.2c-49,1-91.4,23-117,63
		c-14.8,23.2-20.8,80.2,39.2,99.2"/>
	<path class="st1" d="M-64.4,1178.9l26-79c0,0,83.1,8.3,144-59c47-52,29.8-145.2-73.2-143.2c-49,1-91.4,23-117,63
		c-14.8,23.2-20.8,80.2,39.2,99.2"/>
	<path class="st1" d="M206.6,1044.9l26-79c0,0,83.1,8.3,144-59c47-52,29.8-145.2-73.2-143.2c-49,1-91.4,23-117,63
		c-14.8,23.2-20.8,80.2,39.2,99.2"/>
	<path class="st1" d="M-1014,1994.8l26-79c0,0,83.1,8.3,144-59c47-52,29.8-145.2-73.2-143.2c-49,0.9-91.4,23-117,63
		c-14.8,23.2-20.8,80.2,39.2,99.2"/>
	<path class="st1" d="M-751,1847.3l26-79c0,0,83.1,8.3,144-59c47-52,29.8-145.2-73.2-143.2c-49,0.9-91.4,23-117,63
		c-14.8,23.2-20.8,80.2,39.2,99.2"/>
	<path class="st1" d="M-480,1713.3l26-79c0,0,83.1,8.3,144-59c47-52,29.8-145.2-73.2-143.2c-49,0.9-91.4,23-117,63
		c-14.8,23.2-20.8,80.2,39.2,99.2"/>
	<path class="st1" d="M-905.6,2223l26-79c0,0,83.1,8.4,144-59c47-52,29.8-145.2-73.2-143.2c-49,0.9-91.4,23-117,63
		c-14.8,23.2-20.8,80.2,39.2,99.2"/>
	<path class="st1" d="M-642.5,2075.5l26-79c0,0,83.1,8.3,144-59c47-52,29.8-145.2-73.2-143.2c-49,0.9-91.4,23-117,63
		c-14.8,23.2-20.8,80.2,39.2,99.2"/>
	<path class="st1" d="M-371.5,1941.5l26-79c0,0,83.1,8.3,144-59c47-52,29.8-145.2-73.2-143.2c-49,0.9-91.4,23-117,63
		c-14.8,23.2-20.8,80.2,39.2,99.2"/>
	<path class="st1" d="M-789.6,2454l26-79c0,0,83.1,8.4,144-59c47-52,29.8-145.2-73.2-143.2c-49,0.9-91.4,23-117,63
		c-14.8,23.2-20.8,80.2,39.2,99.2"/>
	<path class="st1" d="M-526.5,2306.5l26-79c0,0,83.1,8.4,144-59c47-52,29.8-145.2-73.2-143.2c-49,0.9-91.4,23-117,63
		c-14.8,23.2-20.8,80.2,39.2,99.2"/>
	<path class="st1" d="M-255.5,2172.5l26-79c0,0,83.1,8.3,144-59c47-52,29.8-145.2-73.2-143.2c-49,0.9-91.4,23-117,63
		c-14.8,23.2-20.8,80.2,39.2,99.2"/>
	<path class="st1" d="M-209.8,1559.6l26-79c0,0,83.1,8.3,144-59c47-52,29.8-145.2-73.2-143.2c-49,0.9-91.4,23-117,63
		c-14.8,23.2-20.8,80.2,39.2,99.2"/>
	<path class="st1" d="M53.2,1412.1l26-79c0,0,83.1,8.3,144-59c47-52,29.8-145.2-73.2-143.2c-49,0.9-91.4,23-117,63
		c-14.8,23.2-20.8,80.2,39.2,99.2"/>
	<path class="st1" d="M324.2,1278.1l26-79c0,0,83.1,8.3,144-59c47-52,29.8-145.2-73.2-143.2c-49,1-91.4,23-117,63
		c-14.8,23.2-20.8,80.2,39.2,99.2"/>
	<path class="st1" d="M-101.3,1787.7l26-79c0,0,83.1,8.3,144-59c47-52,29.8-145.2-73.2-143.2c-49,0.9-91.4,23-117,63
		c-14.8,23.2-20.8,80.2,39.2,99.2"/>
	<path class="st1" d="M161.7,1640.2l26-79c0,0,83.1,8.3,144-59c47-52,29.8-145.2-73.2-143.2c-49,0.9-91.4,23-117,63
		c-14.8,23.2-20.8,80.2,39.2,99.2"/>
	<path class="st1" d="M432.7,1506.2l26-79c0,0,83.1,8.3,144-59c47-52,29.8-145.2-73.2-143.2c-49,0.9-91.4,23-117,63
		c-14.8,23.2-20.8,80.2,39.2,99.2"/>
	<path class="st1" d="M14.7,2018.7l26-79c0,0,83.1,8.3,144-59c47-52,29.8-145.2-73.2-143.2c-49,0.9-91.4,23-117,63
		c-14.8,23.2-20.8,80.2,39.2,99.2"/>
	<path class="st1" d="M277.7,1871.2l26-79c0,0,83.1,8.3,144-59c47-52,29.8-145.2-73.2-143.2c-49,0.9-91.4,23-117,63
		c-14.8,23.2-20.8,80.2,39.2,99.2"/>
	<path class="st1" d="M548.7,1737.2l26-79c0,0,83.1,8.3,144-59c47-52,29.8-145.2-73.2-143.2c-49,0.9-91.4,23-117,63
		c-14.8,23.2-20.8,80.2,39.2,99.2"/>
	<path class="st1" d="M244.3,439.6l26-79c0,0,83.1,8.4,144-59c47-52,29.8-145.2-73.2-143.2c-49,0.9-91.4,23-117,63
		c-14.8,23.2-20.8,80.2,39.2,99.2"/>
	<path class="st1" d="M507.3,292.1l26-79c0,0,83.1,8.4,144-59c47-52,29.8-145.2-73.2-143.2c-49,1-91.4,23-117,63
		c-14.8,23.2-20.8,80.2,39.2,99.2"/>
	<path class="st1" d="M778.3,158.1l26-79c0,0,83.1,8.3,144-59c47-52,29.8-145.2-73.2-143.2c-49,0.9-91.4,23-117,63
		c-14.8,23.2-20.8,80.2,39.2,99.2"/>
	<path class="st1" d="M352.8,667.8l26-79c0,0,83.1,8.3,144-59c47-52,29.8-145.2-73.2-143.2c-49,1-91.4,23-117,63
		c-14.8,23.2-20.8,80.2,39.2,99.2"/>
	<path class="st1" d="M615.8,520.3l26-79c0,0,83.1,8.4,144-59c47-52,29.8-145.2-73.2-143.2c-49,0.9-91.4,23-117,63
		c-14.8,23.2-20.8,80.2,39.2,99.2"/>
	<path class="st1" d="M886.8,386.3l26-79c0,0,83.1,8.4,144-59c47-52,29.8-145.2-73.2-143.2c-49,1-91.4,23-117,63
		c-14.8,23.2-20.8,80.2,39.2,99.2"/>
	<path class="st1" d="M468.8,898.8l26-79c0,0,83.1,8.3,144-59c47-52,29.8-145.2-73.2-143.2c-49,1-91.4,23-117,63
		c-14.8,23.2-20.8,80.2,39.2,99.2"/>
	<path class="st1" d="M731.8,751.3l26-79c0,0,83.1,8.3,144-59c47-52,29.8-145.2-73.2-143.2c-49,1-91.4,23-117,63
		c-14.8,23.2-20.8,80.2,39.2,99.2"/>
	<path class="st1" d="M1002.8,617.3l26-79c0,0,83.1,8.4,144-59c47-52,29.8-145.2-73.2-143.2c-49,1-91.4,23-117,63
		c-14.8,23.2-20.8,80.2,39.2,99.2"/>
	<path class="st1" d="M1048.5,4.3l26-79c0,0,83.1,8.4,144-59c47-52,29.8-145.2-73.2-143.2c-49,1-91.4,23-117,63
		c-14.8,23.2-20.8,80.2,39.2,99.2"/>
	<path class="st1" d="M1311.6-143.2l26-79c0,0,83.1,8.4,144-59c47-52,29.8-145.2-73.2-143.2c-49,1-91.4,23-117,63
		c-14.8,23.2-20.8,80.2,39.2,99.2"/>
	<path class="st1" d="M1582.6-277.2l26-79c0,0,83.1,8.4,144-59c47-52,29.8-145.2-73.2-143.2c-49,1-91.4,23-117,63
		c-14.8,23.2-20.8,80.2,39.2,99.2"/>
	<path class="st1" d="M1157,232.5l26-79c0,0,83.1,8.3,144-59c47-52,29.8-145.2-73.2-143.2c-49,0.9-91.4,23-117,63
		c-14.8,23.2-20.8,80.2,39.2,99.2"/>
	<path class="st1" d="M1420,85l26-79c0,0,83.1,8.3,144-59c47-52,29.8-145.2-73.2-143.2c-49,1-91.4,23-117,63
		C1385-110,1379-53,1439-34"/>
	<path class="st1" d="M1691-49l26-79c0,0,83.1,8.4,144-59c47-52,29.8-145.2-73.2-143.2c-49,1-91.4,23-117,63
		C1656-244,1650-187,1710-168"/>
	<path class="st1" d="M1273,463.5l26-79c0,0,83.1,8.4,144-59c47-52,29.8-145.2-73.2-143.2c-49,0.9-91.4,23-117,63
		c-14.8,23.2-20.8,80.2,39.2,99.2"/>
	<path class="st1" d="M1536,316l26-79c0,0,83.1,8.4,144-59c47-52,29.8-145.2-73.2-143.2c-49,1-91.4,23-117,63
		C1501,121,1495,178,1555,197"/>
	<path class="st1" d="M1807,182l26-79c0,0,83.1,8.3,144-59c47-52,29.8-145.2-73.2-143.2c-49,0.9-91.4,23-117,63
		C1772-13,1766,44,1826,63"/>
	<path class="st1" d="M586.4,1132l26-79c0,0,83.1,8.3,144-59c47-52,29.8-145.2-73.2-143.2c-49,1-91.4,23-117,63
		c-14.8,23.2-20.8,80.2,39.2,99.2"/>
	<path class="st1" d="M849.4,984.5l26-79c0,0,83.1,8.3,144-59c47-52,29.8-145.2-73.2-143.2c-49,1-91.4,23-117,63
		c-14.8,23.2-20.8,80.2,39.2,99.2"/>
	<path class="st1" d="M1120.4,850.5l26-79c0,0,83.1,8.3,144-59c47-52,29.8-145.2-73.2-143.2c-49,1-91.4,23-117,63
		c-14.8,23.2-20.8,80.2,39.2,99.2"/>
	<path class="st1" d="M694.9,1360.1l26-79c0,0,83.1,8.3,144-59c47-52,29.8-145.2-73.2-143.2c-49,1-91.4,23-117,63
		c-14.8,23.2-20.8,80.2,39.2,99.2"/>
	<path class="st1" d="M957.9,1212.6l26-79c0,0,83.1,8.3,144-59c47-52,29.8-145.2-73.2-143.2c-49,1-91.4,23-117,63
		c-14.8,23.2-20.8,80.2,39.2,99.2"/>
	<path class="st1" d="M1228.9,1078.6l26-79c0,0,83.1,8.3,144-59c47-52,29.8-145.2-73.2-143.2c-49,1-91.4,23-117,63
		c-14.8,23.2-20.8,80.2,39.2,99.2"/>
	<path class="st1" d="M810.9,1591.1l26-79c0,0,83.1,8.3,144-59c47-52,29.8-145.2-73.2-143.2c-49,0.9-91.4,23-117,63
		c-14.8,23.2-20.8,80.2,39.2,99.2"/>
	<path class="st1" d="M1073.9,1443.6l26-79c0,0,83.1,8.3,144-59c47-52,29.8-145.2-73.2-143.2c-49,0.9-91.4,23-117,63
		c-14.8,23.2-20.8,80.2,39.2,99.2"/>
	<path class="st1" d="M1344.9,1309.6l26-79c0,0,83.1,8.3,144-59c47-52,29.8-145.2-73.2-143.2c-49,1-91.4,23-117,63
		c-14.8,23.2-20.8,80.2,39.2,99.2"/>
	<path class="st1" d="M1390.6,696.7l26-79c0,0,83.1,8.3,144-59c47-52,29.8-145.2-73.2-143.2c-49,1-91.4,23-117,63
		c-14.8,23.2-20.8,80.2,39.2,99.2"/>
	<path class="st1" d="M1653.7,549.2l26-79c0,0,83.1,8.4,144-59c47-52,29.8-145.2-73.2-143.2c-49,0.9-91.4,23-117,63
		c-14.8,23.2-20.8,80.2,39.2,99.2"/>
	<path class="st1" d="M1924.7,415.2l26-79c0,0,83.1,8.4,144-59c47-52,29.8-145.2-73.2-143.2c-49,0.9-91.4,23-117,63
		c-14.8,23.2-20.8,80.2,39.2,99.2"/>
	<path class="st1" d="M1499.1,924.9l26-79c0,0,83.1,8.3,144-59c47-52,29.8-145.2-73.2-143.2c-49,1-91.4,23-117,63
		c-14.8,23.2-20.8,80.2,39.2,99.2"/>
	<path class="st1" d="M1762.1,777.4l26-79c0,0,83.1,8.3,144-59c47-52,29.8-145.2-73.2-143.2c-49,1-91.4,23-117,63
		c-14.8,23.2-20.8,80.2,39.2,99.2"/>
	<path class="st1" d="M2033.1,643.4l26-79c0,0,83.1,8.4,144-59c47-52,29.8-145.2-73.2-143.2c-49,1-91.4,23-117,63
		c-14.8,23.2-20.8,80.2,39.2,99.2"/>
	<path class="st1" d="M1615.1,1155.9l26-79c0,0,83.1,8.3,144-59c47-52,29.8-145.2-73.2-143.2c-49,1-91.4,23-117,63
		c-14.8,23.2-20.8,80.2,39.2,99.2"/>
	<path class="st1" d="M1878.1,1008.4l26-79c0,0,83.1,8.3,144-59c47-52,29.8-145.2-73.2-143.2c-49,1-91.4,23-117,63
		c-14.8,23.2-20.8,80.2,39.2,99.2"/>
	<path class="st1" d="M2149.1,874.4l26-79c0,0,83.1,8.3,144-59c47-52,29.8-145.2-73.2-143.2c-49,1-91.4,23-117,63
		c-14.8,23.2-20.8,80.2,39.2,99.2"/>
</g>
<path class="st2" d="M192.3,404.8l4.9,263.6c0.1,7.9,6.2,14.4,14.1,15.2l205,19.5c27.9,2.7,56.1,0.8,83.4-5.5l44.8-10.3
	c35.7-8.2,61-40,61-76.6V419c0-33.9-26.9-61.8-60.8-62.9l-83.3-2.9l28.2-169.3c1.4-8.6-4.4-16.6-13-17.9l-51.1-7.7
	c-19.2-2.9-37.9,7.6-45.3,25.5L355.4,243c-18.9,45.2-51.4,83.4-93,109.2l-62.7,39C195,394.2,192.2,399.3,192.3,404.8z"/>
<path class="st2" d="M28.8,389v301.2c0,7.9,5.9,14.5,13.7,15.4l78.2,9.2c9.3,1.1,17.5-6.3,17.4-15.7L133,375.4
	c-0.1-9.6-8.9-16.8-18.3-15l-73.2,13.3C34.2,375,28.8,381.5,28.8,389z"/>
</svg>
