<?xml version="1.0" encoding="utf-8"?>
<!-- Generator: Adobe Illustrator 26.3.1, SVG Export Plug-In . SVG Version: 6.00 Build 0)  -->
<svg version="1.1" id="图层_1" xmlns="http://www.w3.org/2000/svg" xmlns:xlink="http://www.w3.org/1999/xlink" x="0px" y="0px"
	 viewBox="0 0 708.7 708.7" style="enable-background:new 0 0 708.7 708.7;" xml:space="preserve">
<style type="text/css">
	.st0{display:none;}
	.st1{display:inline;opacity:0.27;fill:none;stroke:#003B55;stroke-width:40;stroke-miterlimit:10;enable-background:new    ;}
	.st2{fill:#FFFFFF;}
</style>
<g id="图层_2_00000081614852343316006630000002261520102280522373_" class="st0">
	<path class="st1" d="M-1314.5,1200.5l26-79c0,0,83.1,8.3,144-59c47-52,29.8-145.2-73.2-143.2c-49,1-91.4,23-117,63
		c-14.8,23.2-20.8,80.2,39.2,99.2"/>
	<path class="st1" d="M-1051.5,1053l26-79c0,0,83.1,8.3,144-59c47-52,29.8-145.2-73.2-143.2c-49,1-91.4,23-117,63
		c-14.8,23.2-20.8,80.2,39.2,99.2"/>
	<path class="st1" d="M-780.5,919l26-79c0,0,83.1,8.3,144-59c47-52,29.8-145.2-73.2-143.2c-49,1-91.4,23-117,63
		c-14.8,23.2-20.8,80.2,39.2,99.2"/>
	<path class="st1" d="M-1206.1,1428.6l26-79c0,0,83.1,8.3,144-59c47-52,29.8-145.2-73.2-143.2c-49,0.9-91.4,23-117,63
		c-14.8,23.2-20.8,80.2,39.2,99.2"/>
	<path class="st1" d="M-943,1281.1l26-79c0,0,83.1,8.3,144-59c47-52,29.8-145.2-73.2-143.2c-49,0.9-91.4,23-117,63
		c-14.8,23.2-20.8,80.2,39.2,99.2"/>
	<path class="st1" d="M-672,1147.1l26-79c0,0,83.1,8.3,144-59c47-52,29.8-145.2-73.2-143.2c-49,1-91.4,23-117,63
		c-14.8,23.2-20.8,80.2,39.2,99.2"/>
	<path class="st1" d="M-1090.1,1659.6l26-79c0,0,83.1,8.3,144-59c47-52,29.8-145.2-73.2-143.2c-49,0.9-91.4,23-117,63
		c-14.8,23.2-20.8,80.2,39.2,99.2"/>
	<path class="st1" d="M-827,1512.1l26-79c0,0,83.1,8.3,144-59c47-52,29.8-145.2-73.2-143.2c-49,0.9-91.4,23-117,63
		c-14.8,23.2-20.8,80.2,39.2,99.2"/>
	<path class="st1" d="M-556,1378.1l26-79c0,0,83.1,8.3,144-59c47-52,29.8-145.2-73.2-143.2c-49,0.9-91.4,23-117,63
		c-14.8,23.2-20.8,80.2,39.2,99.2"/>
	<path class="st1" d="M-510.3,765.2l26-79c0,0,83.1,8.3,144-59c47-52,29.8-145.2-73.2-143.2c-49,1-91.4,23-117,63
		c-14.8,23.2-20.8,80.2,39.2,99.2"/>
	<path class="st1" d="M-247.3,617.7l26-79c0,0,83.1,8.3,144-59c47-52,29.8-145.2-73.2-143.2c-49,1-91.4,23-117,63
		c-14.8,23.2-20.8,80.2,39.2,99.2"/>
	<path class="st1" d="M23.7,483.7l26-79c0,0,83.1,8.4,144-59c47-52,29.8-145.2-73.2-143.2c-49,0.9-91.4,23-117,63
		c-14.8,23.2-20.8,80.2,39.2,99.2"/>
	<path class="st1" d="M-401.9,993.4l26-79c0,0,83.1,8.3,144-59c47-52,29.8-145.2-73.2-143.2c-49,1-91.4,23-117,63
		c-14.8,23.2-20.8,80.2,39.2,99.2"/>
	<path class="st1" d="M-138.8,845.9l26-79c0,0,83.1,8.3,144-59c47-52,29.8-145.2-73.2-143.2c-49,1-91.4,23-117,63
		c-14.8,23.2-20.8,80.2,39.2,99.2"/>
	<path class="st1" d="M132.2,711.9l26-79c0,0,83.1,8.3,144-59c47-52,29.8-145.2-73.2-143.2c-49,1-91.4,23-117,63
		c-14.8,23.2-20.8,80.2,39.2,99.2"/>
	<path class="st1" d="M-285.9,1224.4l26-79c0,0,83.1,8.3,144-59c47-52,29.8-145.2-73.2-143.2c-49,1-91.4,23-117,63
		c-14.8,23.2-20.8,80.2,39.2,99.2"/>
	<path class="st1" d="M-22.8,1076.9l26-79c0,0,83.1,8.3,144-59c47-52,29.8-145.2-73.2-143.2c-49,1-91.4,23-117,63
		c-14.8,23.2-20.8,80.2,39.2,99.2"/>
	<path class="st1" d="M248.2,942.9l26-79c0,0,83.1,8.3,144-59c47-52,29.8-145.2-73.2-143.2c-49,1-91.4,23-117,63
		c-14.8,23.2-20.8,80.2,39.2,99.2"/>
	<path class="st1" d="M-972.4,1892.8l26-79c0,0,83.1,8.3,144-59c47-52,29.8-145.2-73.2-143.2c-49,0.9-91.4,23-117,63
		c-14.8,23.2-20.8,80.2,39.2,99.2"/>
	<path class="st1" d="M-709.4,1745.3l26-79c0,0,83.1,8.3,144-59c47-52,29.8-145.2-73.2-143.2c-49,0.9-91.4,23-117,63
		c-14.8,23.2-20.8,80.2,39.2,99.2"/>
	<path class="st1" d="M-438.4,1611.3l26-79c0,0,83.1,8.3,144-59c47-52,29.8-145.2-73.2-143.2c-49,0.9-91.4,23-117,63
		c-14.8,23.2-20.8,80.2,39.2,99.2"/>
	<path class="st1" d="M-864,2121l26-79c0,0,83.1,8.4,144-59c47-52,29.8-145.2-73.2-143.2c-49,0.9-91.4,23-117,63
		C-899,1926-905,1983-845,2002"/>
	<path class="st1" d="M-600.9,1973.5l26-79c0,0,83.1,8.3,144-59c47-52,29.8-145.2-73.2-143.2c-49,0.9-91.4,23-117,63
		c-14.8,23.2-20.8,80.2,39.2,99.2"/>
	<path class="st1" d="M-329.9,1839.5l26-79c0,0,83.1,8.3,144-59c47-52,29.8-145.2-73.2-143.2c-49,0.9-91.4,23-117,63
		c-14.8,23.2-20.8,80.2,39.2,99.2"/>
	<path class="st1" d="M-748,2352l26-79c0,0,83.1,8.4,144-59c47-52,29.8-145.2-73.2-143.2c-49,0.9-91.4,23-117,63
		C-783,2157-789,2214-729,2233"/>
	<path class="st1" d="M-484.9,2204.5l26-79c0,0,83.1,8.4,144-59c47-52,29.8-145.2-73.2-143.2c-49,0.9-91.4,23-117,63
		c-14.8,23.2-20.8,80.2,39.2,99.2"/>
	<path class="st1" d="M-213.9,2070.5l26-79c0,0,83.1,8.3,144-59c47-52,29.8-145.2-73.2-143.2c-49,0.9-91.4,23-117,63
		c-14.8,23.2-20.8,80.2,39.2,99.2"/>
	<path class="st1" d="M-168.2,1457.6l26-79c0,0,83.1,8.3,144-59c47-52,29.8-145.2-73.2-143.2c-49,0.9-91.4,23-117,63
		c-14.8,23.2-20.8,80.2,39.2,99.2"/>
	<path class="st1" d="M94.8,1310.1l26-79c0,0,83.1,8.3,144-59c47-52,29.8-145.2-73.2-143.2c-49,0.9-91.4,23-117,63
		c-14.8,23.2-20.8,80.2,39.2,99.2"/>
	<path class="st1" d="M365.8,1176.1l26-79c0,0,83.1,8.3,144-59c47-52,29.8-145.2-73.2-143.2c-49,1-91.4,23-117,63
		c-14.8,23.2-20.8,80.2,39.2,99.2"/>
	<path class="st1" d="M-59.7,1685.7l26-79c0,0,83.1,8.3,144-59c47-52,29.8-145.2-73.2-143.2c-49,0.9-91.4,23-117,63
		c-14.8,23.2-20.8,80.2,39.2,99.2"/>
	<path class="st1" d="M203.3,1538.2l26-79c0,0,83.1,8.3,144-59c47-52,29.8-145.2-73.2-143.2c-49,0.9-91.4,23-117,63
		c-14.8,23.2-20.8,80.2,39.2,99.2"/>
	<path class="st1" d="M474.3,1404.2l26-79c0,0,83.1,8.3,144-59c47-52,29.8-145.2-73.2-143.2c-49,0.9-91.4,23-117,63
		c-14.8,23.2-20.8,80.2,39.2,99.2"/>
	<path class="st1" d="M56.3,1916.7l26-79c0,0,83.1,8.3,144-59c47-52,29.8-145.2-73.2-143.2c-49,0.9-91.4,23-117,63
		c-14.8,23.2-20.8,80.2,39.2,99.2"/>
	<path class="st1" d="M319.3,1769.2l26-79c0,0,83.1,8.3,144-59c47-52,29.8-145.2-73.2-143.2c-49,0.9-91.4,23-117,63
		c-14.8,23.2-20.8,80.2,39.2,99.2"/>
	<path class="st1" d="M590.3,1635.2l26-79c0,0,83.1,8.3,144-59c47-52,29.8-145.2-73.2-143.2c-49,0.9-91.4,23-117,63
		c-14.8,23.2-20.8,80.2,39.2,99.2"/>
	<path class="st1" d="M285.9,337.6l26-79c0,0,83.1,8.4,144-59c47-52,29.8-145.2-73.2-143.2c-49,0.9-91.4,23-117,63
		c-14.8,23.2-20.8,80.2,39.2,99.2"/>
	<path class="st1" d="M548.9,190.1l26-79c0,0,83.1,8.4,144-59c47-52,29.8-145.2-73.2-143.2c-49,1-91.4,23-117,63
		c-14.8,23.2-20.8,80.2,39.2,99.2"/>
	<path class="st1" d="M819.9,56.1l26-79c0,0,83.1,8.3,144-59c47-52,29.8-145.2-73.2-143.2c-49,0.9-91.4,23-117,63
		c-14.8,23.2-20.8,80.2,39.2,99.2"/>
	<path class="st1" d="M394.4,565.8l26-79c0,0,83.1,8.3,144-59c47-52,29.8-145.2-73.2-143.2c-49,1-91.4,23-117,63
		c-14.8,23.2-20.8,80.2,39.2,99.2"/>
	<path class="st1" d="M657.4,418.3l26-79c0,0,83.1,8.4,144-59c47-52,29.8-145.2-73.2-143.2c-49,0.9-91.4,23-117,63
		c-14.8,23.2-20.8,80.2,39.2,99.2"/>
	<path class="st1" d="M928.4,284.3l26-79c0,0,83.1,8.4,144-59c47-52,29.8-145.2-73.2-143.2c-49,1-91.4,23-117,63
		c-14.8,23.2-20.8,80.2,39.2,99.2"/>
	<path class="st1" d="M510.4,796.8l26-79c0,0,83.1,8.3,144-59c47-52,29.8-145.2-73.2-143.2c-49,1-91.4,23-117,63
		c-14.8,23.2-20.8,80.2,39.2,99.2"/>
	<path class="st1" d="M773.4,649.3l26-79c0,0,83.1,8.3,144-59c47-52,29.8-145.2-73.2-143.2c-49,1-91.4,23-117,63
		c-14.8,23.2-20.8,80.2,39.2,99.2"/>
	<path class="st1" d="M1044.4,515.3l26-79c0,0,83.1,8.4,144-59c47-52,29.8-145.2-73.2-143.2c-49,1-91.4,23-117,63
		c-14.8,23.2-20.8,80.2,39.2,99.2"/>
	<path class="st1" d="M1090.1-97.7l26-79c0,0,83.1,8.4,144-59c47-52,29.8-145.2-73.2-143.2c-49,1-91.4,23-117,63
		c-14.8,23.2-20.8,80.2,39.2,99.2"/>
	<path class="st1" d="M1353.2-245.2l26-79c0,0,83.1,8.4,144-59c47-52,29.8-145.2-73.2-143.2c-49,1-91.4,23-117,63
		c-14.8,23.2-20.8,80.2,39.2,99.2"/>
	<path class="st1" d="M1624.2-379.2l26-79c0,0,83.1,8.4,144-59c47-52,29.8-145.2-73.2-143.2c-49,1-91.4,23-117,63
		c-14.8,23.2-20.8,80.2,39.2,99.2"/>
	<path class="st1" d="M1198.6,130.5l26-79c0,0,83.1,8.3,144-59c47-52,29.8-145.2-73.2-143.2c-49,0.9-91.4,23-117,63
		c-14.8,23.2-20.8,80.2,39.2,99.2"/>
	<path class="st1" d="M1461.6-17l26-79c0,0,83.1,8.3,144-59c47-52,29.8-145.2-73.2-143.2c-49,1-91.4,23-117,63
		c-14.8,23.2-20.8,80.2,39.2,99.2"/>
	<path class="st1" d="M1732.6-151l26-79c0,0,83.1,8.4,144-59c47-52,29.8-145.2-73.2-143.2c-49,1-91.4,23-117,63
		c-14.8,23.2-20.8,80.2,39.2,99.2"/>
	<path class="st1" d="M1314.6,361.5l26-79c0,0,83.1,8.4,144-59c47-52,29.8-145.2-73.2-143.2c-49,0.9-91.4,23-117,63
		c-14.8,23.2-20.8,80.2,39.2,99.2"/>
	<path class="st1" d="M1577.6,214l26-79c0,0,83.1,8.4,144-59c47-52,29.8-145.2-73.2-143.2c-49,1-91.4,23-117,63
		C1542.6,19,1536.6,76,1596.6,95"/>
	<path class="st1" d="M1848.6,80l26-79c0,0,83.1,8.3,144-59c47-52,29.8-145.2-73.2-143.2c-49,0.9-91.4,23-117,63
		c-14.8,23.2-20.8,80.2,39.2,99.2"/>
	<path class="st1" d="M628,1030l26-79c0,0,83.1,8.3,144-59c47-52,29.8-145.2-73.2-143.2c-49,1-91.4,23-117,63
		C593,835,587,892,647,911"/>
	<path class="st1" d="M891,882.5l26-79c0,0,83.1,8.3,144-59c47-52,29.8-145.2-73.2-143.2c-49,1-91.4,23-117,63
		C856,687.5,850,744.5,910,763.5"/>
	<path class="st1" d="M1162,748.5l26-79c0,0,83.1,8.3,144-59c47-52,29.8-145.2-73.2-143.2c-49,1-91.4,23-117,63
		c-14.8,23.2-20.8,80.2,39.2,99.2"/>
	<path class="st1" d="M736.5,1258.1l26-79c0,0,83.1,8.3,144-59c47-52,29.8-145.2-73.2-143.2c-49,1-91.4,23-117,63
		c-14.8,23.2-20.8,80.2,39.2,99.2"/>
	<path class="st1" d="M999.5,1110.6l26-79c0,0,83.1,8.3,144-59c47-52,29.8-145.2-73.2-143.2c-49,1-91.4,23-117,63
		c-14.8,23.2-20.8,80.2,39.2,99.2"/>
	<path class="st1" d="M1270.5,976.6l26-79c0,0,83.1,8.3,144-59c47-52,29.8-145.2-73.2-143.2c-49,1-91.4,23-117,63
		c-14.8,23.2-20.8,80.2,39.2,99.2"/>
	<path class="st1" d="M852.5,1489.1l26-79c0,0,83.1,8.3,144-59c47-52,29.8-145.2-73.2-143.2c-49,0.9-91.4,23-117,63
		c-14.8,23.2-20.8,80.2,39.2,99.2"/>
	<path class="st1" d="M1115.5,1341.6l26-79c0,0,83.1,8.3,144-59c47-52,29.8-145.2-73.2-143.2c-49,0.9-91.4,23-117,63
		c-14.8,23.2-20.8,80.2,39.2,99.2"/>
	<path class="st1" d="M1386.5,1207.6l26-79c0,0,83.1,8.3,144-59c47-52,29.8-145.2-73.2-143.2c-49,1-91.4,23-117,63
		c-14.8,23.2-20.8,80.2,39.2,99.2"/>
	<path class="st1" d="M1432.2,594.7l26-79c0,0,83.1,8.3,144-59c47-52,29.8-145.2-73.2-143.2c-49,1-91.4,23-117,63
		c-14.8,23.2-20.8,80.2,39.2,99.2"/>
	<path class="st1" d="M1695.3,447.2l26-79c0,0,83.1,8.4,144-59c47-52,29.8-145.2-73.2-143.2c-49,0.9-91.4,23-117,63
		c-14.8,23.2-20.8,80.2,39.2,99.2"/>
	<path class="st1" d="M1966.3,313.2l26-79c0,0,83.1,8.4,144-59c47-52,29.8-145.2-73.2-143.2c-49,0.9-91.4,23-117,63
		c-14.8,23.2-20.8,80.2,39.2,99.2"/>
	<path class="st1" d="M1540.7,822.9l26-79c0,0,83.1,8.3,144-59c47-52,29.8-145.2-73.2-143.2c-49,1-91.4,23-117,63
		c-14.8,23.2-20.8,80.2,39.2,99.2"/>
	<path class="st1" d="M1803.7,675.4l26-79c0,0,83.1,8.3,144-59c47-52,29.8-145.2-73.2-143.2c-49,1-91.4,23-117,63
		c-14.8,23.2-20.8,80.2,39.2,99.2"/>
	<path class="st1" d="M2074.7,541.4l26-79c0,0,83.1,8.4,144-59c47-52,29.8-145.2-73.2-143.2c-49,1-91.4,23-117,63
		c-14.8,23.2-20.8,80.2,39.2,99.2"/>
	<path class="st1" d="M1656.7,1053.9l26-79c0,0,83.1,8.3,144-59c47-52,29.8-145.2-73.2-143.2c-49,1-91.4,23-117,63
		c-14.8,23.2-20.8,80.2,39.2,99.2"/>
	<path class="st1" d="M1919.7,906.4l26-79c0,0,83.1,8.3,144-59c47-52,29.8-145.2-73.2-143.2c-49,1-91.4,23-117,63
		c-14.8,23.2-20.8,80.2,39.2,99.2"/>
	<path class="st1" d="M2190.7,772.4l26-79c0,0,83.1,8.3,144-59c47-52,29.8-145.2-73.2-143.2c-49,1-91.4,23-117,63
		c-14.8,23.2-20.8,80.2,39.2,99.2"/>
</g>
<path class="st2" d="M437.2,486.5c-104.8,0-189.7-85-189.7-189.7c0-51.8,20.8-98.8,54.6-133.1c7.2-7.3-0.2-19.4-9.9-16.5
	C203,173.9,138.1,256.6,138.1,354.4c0,119.4,96.8,216.3,216.3,216.3c70.3,0,132.8-33.6,172.3-85.6c6.2-8.2-2.7-19.2-12.1-15
	C491,480.6,464.8,486.5,437.2,486.5z"/>
</svg>
